<?xml version="1.0" encoding="UTF-8"?>
<!DOCTYPE svg PUBLIC "-//W3C//DTD SVG 1.1//EN" "http://www.w3.org/Graphics/SVG/1.1/DTD/svg11.dtd">
<svg xmlns="http://www.w3.org/2000/svg" version="1.1" width="3840px" height="2160px" style="shape-rendering:geometricPrecision; text-rendering:geometricPrecision; image-rendering:optimizeQuality; fill-rule:evenodd; clip-rule:evenodd" xmlns:xlink="http://www.w3.org/1999/xlink">
<g><path style="opacity:1" fill="#4b92a3" d="M 496.5,697.5 C 504.5,697.5 512.5,697.5 520.5,697.5C 520.5,720.833 520.5,744.167 520.5,767.5C 542.167,767.5 563.833,767.5 585.5,767.5C 585.5,775.167 585.5,782.833 585.5,790.5C 564.167,790.5 542.833,790.5 521.5,790.5C 521.5,814.167 521.5,837.833 521.5,861.5C 513.167,861.5 504.833,861.5 496.5,861.5C 497.157,837.476 496.49,813.81 494.5,790.5C 473.833,790.5 453.167,790.5 432.5,790.5C 432.5,782.833 432.5,775.167 432.5,767.5C 453.833,767.5 475.167,767.5 496.5,767.5C 496.5,744.167 496.5,720.833 496.5,697.5 Z"/></g>
<g><path style="opacity:1" fill="#dae4eb" d="M 496.5,697.5 C 496.5,720.833 496.5,744.167 496.5,767.5C 475.167,767.5 453.833,767.5 432.5,767.5C 432.5,775.167 432.5,782.833 432.5,790.5C 431.508,782.684 431.174,774.684 431.5,766.5C 452.833,766.5 474.167,766.5 495.5,766.5C 495.169,743.327 495.502,720.327 496.5,697.5 Z"/></g>
<g><path style="opacity:1" fill="#f2f5f7" d="M 520.5,697.5 C 521.498,720.327 521.831,743.327 521.5,766.5C 543.007,766.169 564.34,766.503 585.5,767.5C 563.833,767.5 542.167,767.5 520.5,767.5C 520.5,744.167 520.5,720.833 520.5,697.5 Z"/></g>
<g><path style="opacity:1" fill="#ff9219" d="M 289.5,770.5 C 300.833,770.5 312.167,770.5 323.5,770.5C 323.5,805.167 323.5,839.833 323.5,874.5C 355.833,874.5 388.167,874.5 420.5,874.5C 420.5,884.5 420.5,894.5 420.5,904.5C 388.329,904.168 356.329,904.502 324.5,905.5C 323.502,939.996 323.168,974.663 323.5,1009.5C 311.833,1009.5 300.167,1009.5 288.5,1009.5C 288.826,974.76 288.493,940.094 287.5,905.5C 256.338,904.502 225.004,904.168 193.5,904.5C 193.5,894.5 193.5,884.5 193.5,874.5C 225.004,874.832 256.338,874.498 287.5,873.5C 289.493,839.516 290.16,805.183 289.5,770.5 Z"/></g>
<g><path style="opacity:1" fill="#468ca1" d="M 690.5,770.5 C 702.833,770.5 715.167,770.5 727.5,770.5C 727.167,805.24 727.501,839.24 728.5,872.5C 730.5,872.833 732.5,873.167 734.5,873.5C 735.209,874.404 736.209,874.737 737.5,874.5C 737.013,875.473 736.513,876.473 736,877.5C 734.972,875.484 733.305,874.484 731,874.5C 728.391,875.611 726.224,877.278 724.5,879.5C 723.28,878.289 722.113,878.289 721,879.5C 720.033,878.322 719.533,876.989 719.5,875.5C 718.808,876.025 718.308,876.692 718,877.5C 717.293,875.919 716.46,874.419 715.5,873C 718.668,872.418 719.001,871.418 716.5,870C 717.573,868.75 717.573,867.416 716.5,866C 716.667,865.5 716.833,865 717,864.5C 719.881,867.372 720.881,870.706 720,874.5C 720.324,872.431 721.158,872.098 722.5,873.5C 723.604,872.369 723.271,871.535 721.5,871C 721.957,870.586 722.291,870.086 722.5,869.5C 719.833,867.833 719.833,866.167 722.5,864.5C 721.399,862.606 720.066,861.939 718.5,862.5C 720.482,861.784 722.149,860.617 723.5,859C 720.807,859.863 719.14,858.697 718.5,855.5C 719.14,852.352 720.14,852.019 721.5,854.5C 721.833,854.167 722.167,853.833 722.5,853.5C 722.167,851.5 721.833,849.5 721.5,847.5C 719.287,844.92 717.12,844.92 715,847.5C 713.372,846.181 713.539,844.848 715.5,843.5C 716.167,843.833 716.833,844.167 717.5,844.5C 718.354,843.478 719.354,842.645 720.5,842C 717.131,839.262 713.464,839.262 709.5,842C 709.928,844.629 710.928,846.962 712.5,849C 709.89,850.384 708.39,852.551 708,855.5C 707.692,854.692 707.192,854.025 706.5,853.5C 705.147,854.685 703.98,856.019 703,857.5C 702.46,855.865 702.96,854.532 704.5,853.5C 704.081,852.328 703.415,851.328 702.5,850.5C 702.002,851.603 701.669,852.603 701.5,853.5C 700.77,852.066 699.77,850.9 698.5,850C 699.667,849.5 700.5,848.667 701,847.5C 701.605,849.481 702.605,849.815 704,848.5C 704.583,850.002 705.416,851.335 706.5,852.5C 707.223,850.836 706.89,849.169 705.5,847.5C 706.665,846.416 707.998,845.583 709.5,845C 707.043,842.743 704.376,841.743 701.5,842C 698.712,838.9 698.545,836.067 701,833.5C 702.852,835.23 702.686,836.396 700.5,837C 702.433,837.783 703.933,837.283 705,835.5C 705.576,838.124 706.91,838.791 709,837.5C 708.923,838.738 709.089,839.738 709.5,840.5C 712.021,838.74 712.854,836.407 712,833.5C 711.935,835.883 711.102,836.55 709.5,835.5C 708.145,833.477 707.812,831.477 708.5,829.5C 707.369,828.396 706.535,828.729 706,830.5C 704.157,827.347 704.99,826.18 708.5,827C 707.366,825.984 707.699,825.317 709.5,825C 708.166,822.913 706.333,821.413 704,820.5C 702.474,815.373 701.474,815.373 701,820.5C 700.395,818.519 699.395,818.185 698,819.5C 697.25,818.874 696.416,818.374 695.5,818C 696.938,817.781 698.271,817.281 699.5,816.5C 698.975,815.808 698.308,815.308 697.5,815C 698.252,814.329 698.586,813.496 698.5,812.5C 695.988,812.423 693.988,813.423 692.5,815.5C 694.532,816.968 694.365,818.635 692,820.5C 691.829,827.679 691.329,834.679 690.5,841.5C 690.5,817.833 690.5,794.167 690.5,770.5 Z"/></g>
<g><path style="opacity:1" fill="#dee7ee" d="M 690.5,770.5 C 702.989,769.505 715.656,769.171 728.5,769.5C 728.5,803.833 728.5,838.167 728.5,872.5C 727.501,839.24 727.167,805.24 727.5,770.5C 715.167,770.5 702.833,770.5 690.5,770.5 Z"/></g>
<g><path style="opacity:1" fill="#fead63" d="M 288.5,770.5 C 288.833,770.5 289.167,770.5 289.5,770.5C 290.16,805.183 289.493,839.516 287.5,873.5C 288.493,839.24 288.826,804.906 288.5,770.5 Z"/></g>
<g><path style="opacity:1" fill="#ffbe85" d="M 288.5,770.5 C 300.322,769.505 312.322,769.172 324.5,769.5C 324.5,804.167 324.5,838.833 324.5,873.5C 356.833,873.5 389.167,873.5 421.5,873.5C 421.5,884.167 421.5,894.833 421.5,905.5C 389.167,905.5 356.833,905.5 324.5,905.5C 356.329,904.502 388.329,904.168 420.5,904.5C 420.5,894.5 420.5,884.5 420.5,874.5C 388.167,874.5 355.833,874.5 323.5,874.5C 323.5,839.833 323.5,805.167 323.5,770.5C 312.167,770.5 300.833,770.5 289.5,770.5C 289.167,770.5 288.833,770.5 288.5,770.5 Z"/></g>
<g><path style="opacity:1" fill="#a5c0d1" d="M 494.5,790.5 C 496.49,813.81 497.157,837.476 496.5,861.5C 495.824,837.931 495.157,814.264 494.5,790.5 Z"/></g>
<g><path style="opacity:1" fill="#3f839d" d="M 698.5,812.5 C 698.349,809.282 697.516,808.949 696,811.5C 694.031,807.417 692.531,803.251 691.5,799C 691.563,796.719 692.397,794.886 694,793.5C 694.875,795.513 696.209,795.513 698,793.5C 696.493,795.026 695.993,796.86 696.5,799C 697.333,800.5 698.5,801.667 700,802.5C 700.583,800.998 701.416,799.665 702.5,798.5C 703.192,799.025 703.692,799.692 704,800.5C 704.645,799.354 705.478,798.354 706.5,797.5C 705.738,797.089 704.738,796.923 703.5,797C 706.366,795.213 706.866,793.046 705,790.5C 704.417,792.002 703.584,793.335 702.5,794.5C 701.777,792.836 702.11,791.169 703.5,789.5C 703.192,788.692 702.692,788.025 702,787.5C 701.282,788.451 700.449,788.617 699.5,788C 702.679,786.076 703.013,783.91 700.5,781.5C 701.631,780.396 702.465,780.729 703,782.5C 703.677,780.311 704.844,779.978 706.5,781.5C 707.862,783.012 708.196,784.512 707.5,786C 709.301,786.317 709.634,786.984 708.5,788C 709.167,788.333 709.833,788.667 710.5,789C 709.09,789.368 708.09,790.201 707.5,791.5C 707.938,792.506 708.604,792.506 709.5,791.5C 710.624,793.369 711.457,795.369 712,797.5C 713.113,796.24 713.28,795.073 712.5,794C 714.586,793.443 715.919,794.276 716.5,796.5C 715.302,800.726 716.635,801.892 720.5,800C 717.92,798.519 717.087,796.352 718,793.5C 719.314,796.461 720.981,799.128 723,801.5C 723.718,800.549 724.551,800.383 725.5,801C 724.04,803.072 722.374,803.906 720.5,803.5C 721.914,804.624 723.414,805.624 725,806.5C 725.617,807.449 725.451,808.282 724.5,809C 726.271,809.535 726.604,810.369 725.5,811.5C 723.527,810.36 721.693,809.027 720,807.5C 719.293,809.081 718.46,810.581 717.5,812C 719.545,812.93 720.379,814.43 720,816.5C 718.981,815.313 717.814,814.313 716.5,813.5C 715.066,816.047 713.4,818.381 711.5,820.5C 709.38,819.597 709.046,818.263 710.5,816.5C 707.972,815.184 707.972,814.017 710.5,813C 709.953,812.075 709.287,811.242 708.5,810.5C 707.833,811.833 707.167,813.167 706.5,814.5C 705.914,814.291 705.414,813.957 705,813.5C 705.263,814.951 705.096,816.284 704.5,817.5C 701.833,815.5 701.833,813.5 704.5,811.5C 705.396,812.506 706.062,812.506 706.5,811.5C 704.665,810.572 704.332,809.406 705.5,808C 704.258,807.689 703.258,808.189 702.5,809.5C 701.914,809.291 701.414,808.957 701,808.5C 700.392,810.066 699.558,811.4 698.5,812.5 Z"/></g>
<g><path style="opacity:1" fill="#3f839d" d="M 698.5,812.5 C 698.586,813.496 698.252,814.329 697.5,815C 698.308,815.308 698.975,815.808 699.5,816.5C 698.271,817.281 696.938,817.781 695.5,818C 696.416,818.374 697.25,818.874 698,819.5C 699.395,818.185 700.395,818.519 701,820.5C 701.474,815.373 702.474,815.373 704,820.5C 706.333,821.413 708.166,822.913 709.5,825C 707.699,825.317 707.366,825.984 708.5,827C 704.99,826.18 704.157,827.347 706,830.5C 706.535,828.729 707.369,828.396 708.5,829.5C 707.812,831.477 708.145,833.477 709.5,835.5C 711.102,836.55 711.935,835.883 712,833.5C 712.854,836.407 712.021,838.74 709.5,840.5C 709.089,839.738 708.923,838.738 709,837.5C 706.91,838.791 705.576,838.124 705,835.5C 703.933,837.283 702.433,837.783 700.5,837C 702.686,836.396 702.852,835.23 701,833.5C 698.545,836.067 698.712,838.9 701.5,842C 704.376,841.743 707.043,842.743 709.5,845C 707.998,845.583 706.665,846.416 705.5,847.5C 706.89,849.169 707.223,850.836 706.5,852.5C 705.416,851.335 704.583,850.002 704,848.5C 702.605,849.815 701.605,849.481 701,847.5C 700.5,848.667 699.667,849.5 698.5,850C 699.77,850.9 700.77,852.066 701.5,853.5C 701.669,852.603 702.002,851.603 702.5,850.5C 703.415,851.328 704.081,852.328 704.5,853.5C 702.96,854.532 702.46,855.865 703,857.5C 703.98,856.019 705.147,854.685 706.5,853.5C 707.192,854.025 707.692,854.692 708,855.5C 708.39,852.551 709.89,850.384 712.5,849C 710.928,846.962 709.928,844.629 709.5,842C 713.464,839.262 717.131,839.262 720.5,842C 719.354,842.645 718.354,843.478 717.5,844.5C 716.833,844.167 716.167,843.833 715.5,843.5C 713.539,844.848 713.372,846.181 715,847.5C 717.12,844.92 719.287,844.92 721.5,847.5C 721.833,849.5 722.167,851.5 722.5,853.5C 722.167,853.833 721.833,854.167 721.5,854.5C 720.14,852.019 719.14,852.352 718.5,855.5C 719.14,858.697 720.807,859.863 723.5,859C 722.149,860.617 720.482,861.784 718.5,862.5C 720.066,861.939 721.399,862.606 722.5,864.5C 719.833,866.167 719.833,867.833 722.5,869.5C 722.291,870.086 721.957,870.586 721.5,871C 723.271,871.535 723.604,872.369 722.5,873.5C 721.158,872.098 720.324,872.431 720,874.5C 720.881,870.706 719.881,867.372 717,864.5C 716.833,865 716.667,865.5 716.5,866C 717.573,867.416 717.573,868.75 716.5,870C 719.001,871.418 718.668,872.418 715.5,873C 716.46,874.419 717.293,875.919 718,877.5C 718.308,876.692 718.808,876.025 719.5,875.5C 719.533,876.989 720.033,878.322 721,879.5C 722.113,878.289 723.28,878.289 724.5,879.5C 726.224,877.278 728.391,875.611 731,874.5C 733.305,874.484 734.972,875.484 736,877.5C 736.513,876.473 737.013,875.473 737.5,874.5C 739.582,874.624 741.082,875.624 742,877.5C 743.182,874.29 745.015,873.79 747.5,876C 746.376,876.249 745.376,876.749 744.5,877.5C 746.548,878.326 748.215,877.659 749.5,875.5C 754.584,874.11 759.584,874.277 764.5,876C 763.376,876.249 762.376,876.749 761.5,877.5C 761.833,877.833 762.167,878.167 762.5,878.5C 764.837,876.771 767.337,875.438 770,874.5C 772.704,874.185 774.704,875.185 776,877.5C 777.182,874.29 779.015,873.79 781.5,876C 780.376,876.249 779.376,876.749 778.5,877.5C 781.086,878.21 783.086,877.21 784.5,874.5C 785.719,875.263 786.719,876.263 787.5,877.5C 788.799,876.91 789.632,875.91 790,874.5C 791.359,875.365 792.526,876.365 793.5,877.5C 792.638,878.39 792.138,879.39 792,880.5C 793.008,880.982 794.175,881.148 795.5,881C 795.072,883.629 794.072,885.962 792.5,888C 793.451,888.718 793.617,889.551 793,890.5C 790.672,887.683 787.838,885.516 784.5,884C 788.251,883.239 788.417,882.072 785,880.5C 782.942,881.109 782.109,882.109 782.5,883.5C 781.808,882.975 781.308,882.308 781,881.5C 780.833,882.167 780.667,882.833 780.5,883.5C 781.979,883.952 783.146,885.285 784,887.5C 784.875,885.487 786.209,885.487 788,887.5C 788.215,889.42 787.548,891.086 786,892.5C 785.309,889.734 783.809,889.067 781.5,890.5C 779.792,888.457 777.792,886.79 775.5,885.5C 774.147,886.685 772.98,888.019 772,889.5C 771.577,888.044 770.744,887.544 769.5,888C 770.667,889.5 771.833,891 773,892.5C 773.333,891.167 773.667,889.833 774,888.5C 775.035,891.786 776.535,892.12 778.5,889.5C 779.5,891.167 780.833,892.5 782.5,893.5C 781.315,894.853 779.981,896.02 778.5,897C 779.126,897.75 779.626,898.584 780,899.5C 780.807,895.603 782.474,894.937 785,897.5C 786.84,896.167 787.34,896.334 786.5,898C 788.004,899.337 789.004,901.004 789.5,903C 789.833,903.167 790.167,903.333 790.5,903.5C 791.167,902.167 791.833,900.833 792.5,899.5C 792.911,900.262 793.077,901.262 793,902.5C 793.893,901.289 794.726,901.289 795.5,902.5C 794.257,904.833 792.591,905.5 790.5,904.5C 785.54,906.062 780.54,907.062 775.5,907.5C 772.5,907.5 769.5,907.5 766.5,907.5C 764.708,906.691 762.708,906.191 760.5,906C 763.447,904.777 764.447,902.777 763.5,900C 766.965,899.066 767.298,897.566 764.5,895.5C 766.167,894.833 767.833,894.167 769.5,893.5C 769.333,893.167 769.167,892.833 769,892.5C 767.444,891.636 765.611,891.636 763.5,892.5C 763.002,893.603 762.669,894.603 762.5,895.5C 761.201,894.91 760.368,893.91 760,892.5C 759.323,894.689 758.156,895.022 756.5,893.5C 755.167,894.167 755.167,894.833 756.5,895.5C 762.94,896.001 762.94,897.334 756.5,899.5C 755.013,904.657 754.347,904.324 754.5,898.5C 753.325,898.719 752.325,898.386 751.5,897.5C 752.737,896.719 753.737,895.719 754.5,894.5C 754.299,892.352 753.966,890.186 753.5,888C 754.504,886.202 755.004,884.368 755,882.5C 751.34,885.119 750.007,888.453 751,892.5C 748.803,888.513 746.803,884.513 745,880.5C 744.25,881.126 743.416,881.626 742.5,882C 743.249,883.734 743.749,885.567 744,887.5C 744.718,886.549 745.551,886.383 746.5,887C 746.018,888.008 745.852,889.175 746,890.5C 745.346,889.304 744.846,889.304 744.5,890.5C 747.821,892.105 748.154,894.105 745.5,896.5C 745.833,897.167 746.167,897.833 746.5,898.5C 744.737,898.694 742.903,898.694 741,898.5C 739,899.167 737.667,900.5 737,902.5C 736.667,901.5 736.333,900.5 736,899.5C 734.295,901.577 733.128,903.91 732.5,906.5C 732.167,906.5 731.833,906.5 731.5,906.5C 731.096,903.163 729.096,900.496 725.5,898.5C 725.414,899.496 725.748,900.329 726.5,901C 725.692,901.308 725.025,901.808 724.5,902.5C 725.325,906.151 724.659,906.318 722.5,903C 722.833,902.667 723.167,902.333 723.5,902C 721.175,899.935 718.842,899.602 716.5,901C 715.85,903.312 715.85,905.812 716.5,908.5C 716.032,910.134 715.032,911.3 713.5,912C 714.793,912.49 716.127,912.657 717.5,912.5C 717.413,909.402 717.913,909.068 719,911.5C 720.439,909.986 721.939,909.653 723.5,910.5C 722.975,911.192 722.308,911.692 721.5,912C 722.956,912.423 723.456,913.256 723,914.5C 722,915.833 721,915.833 720,914.5C 719.626,915.416 719.126,916.25 718.5,917C 722.512,919.041 723.178,921.707 720.5,925C 722.271,925.535 722.604,926.369 721.5,927.5C 720.5,927 719.5,926.5 718.5,926C 718.833,925.667 719.167,925.333 719.5,925C 718.451,924.508 717.451,924.674 716.5,925.5C 715.459,923.009 714.626,923.009 714,925.5C 712.605,923.86 711.105,922.36 709.5,921C 712,920.167 712.167,919 710,917.5C 707.76,917.09 705.593,917.757 703.5,919.5C 702.105,918.185 701.105,918.519 700.5,920.5C 702.543,921.579 703.876,923.246 704.5,925.5C 703.975,926.192 703.308,926.692 702.5,927C 703.667,927.5 704.5,928.333 705,929.5C 705.219,928.062 705.719,926.729 706.5,925.5C 707.712,927.841 707.378,930.007 705.5,932C 706.167,932.333 706.833,932.667 707.5,933C 707.5,934 707.5,935 707.5,936C 704.91,938.289 703.077,937.789 702,934.5C 700.844,935.993 700.01,935.826 699.5,934C 700.484,932.343 701.484,930.677 702.5,929C 701.551,928.383 700.718,928.549 700,929.5C 700.979,927.721 700.646,926.055 699,924.5C 698.5,925.667 697.667,926.5 696.5,927C 697.451,927.718 697.617,928.551 697,929.5C 695.748,927.999 694.748,926.332 694,924.5C 693.329,925.252 692.496,925.586 691.5,925.5C 691.823,919.31 691.49,913.31 690.5,907.5C 688.864,906.251 687.697,904.584 687,902.5C 686.692,903.308 686.192,903.975 685.5,904.5C 684.289,903.726 684.289,902.893 685.5,902C 681.756,899.861 678.923,900.695 677,904.5C 675.956,902.285 675.29,899.952 675,897.5C 672.497,898.55 670.997,897.55 670.5,894.5C 672.542,893.497 672.875,892.163 671.5,890.5C 672.588,886.614 673.421,886.614 674,890.5C 674.374,889.584 674.874,888.75 675.5,888C 674.874,887.25 674.374,886.416 674,885.5C 673.667,885.833 673.333,886.167 673,886.5C 671.581,885.54 670.081,884.707 668.5,884C 672.251,883.239 672.417,882.072 669,880.5C 668.25,881.126 667.416,881.626 666.5,882C 667.76,883.814 667.76,885.647 666.5,887.5C 665.969,883.19 663.969,879.857 660.5,877.5C 661.948,873.742 663.782,873.742 666,877.5C 667.182,874.29 669.015,873.79 671.5,876C 670.376,876.249 669.376,876.749 668.5,877.5C 668.833,877.833 669.167,878.167 669.5,878.5C 671.854,877.002 674.187,875.668 676.5,874.5C 676.119,876.942 676.786,877.609 678.5,876.5C 681.278,878.659 683.611,877.992 685.5,874.5C 689.481,875.506 689.481,876.506 685.5,877.5C 685.833,877.833 686.167,878.167 686.5,878.5C 689.287,876.553 691.954,874.386 694.5,872C 692.078,869.888 692.078,867.888 694.5,866C 693.551,865.383 692.718,865.549 692,866.5C 691.829,858.323 691.329,850.323 690.5,842.5C 690.5,842.167 690.5,841.833 690.5,841.5C 691.329,834.679 691.829,827.679 692,820.5C 694.365,818.635 694.532,816.968 692.5,815.5C 693.988,813.423 695.988,812.423 698.5,812.5 Z"/></g>
<g><path style="opacity:1" fill="#ffb065" d="M 287.5,873.5 C 256.338,874.498 225.004,874.832 193.5,874.5C 193.5,884.5 193.5,894.5 193.5,904.5C 225.004,904.168 256.338,904.502 287.5,905.5C 255.833,905.5 224.167,905.5 192.5,905.5C 192.5,894.833 192.5,884.167 192.5,873.5C 224.167,873.5 255.833,873.5 287.5,873.5 Z"/></g>
<g><path style="opacity:1" fill="#9ebbcb" d="M 621.5,872.5 C 632.192,872.784 642.858,873.118 653.5,873.5C 649.069,873.231 644.735,873.564 640.5,874.5C 638.167,874.5 635.833,874.5 633.5,874.5C 629.5,873.833 625.5,873.167 621.5,872.5 Z"/></g>
<g><path style="opacity:1" fill="#69a0b1" d="M 805.5,873.5 C 801.753,873.392 798.086,873.892 794.5,875C 793.748,875.671 793.414,876.504 793.5,877.5C 792.526,876.365 791.359,875.365 790,874.5C 789.632,875.91 788.799,876.91 787.5,877.5C 786.719,876.263 785.719,875.263 784.5,874.5C 783.086,877.21 781.086,878.21 778.5,877.5C 779.376,876.749 780.376,876.249 781.5,876C 779.015,873.79 777.182,874.29 776,877.5C 774.704,875.185 772.704,874.185 770,874.5C 767.337,875.438 764.837,876.771 762.5,878.5C 762.167,878.167 761.833,877.833 761.5,877.5C 762.376,876.749 763.376,876.249 764.5,876C 759.584,874.277 754.584,874.11 749.5,875.5C 748.215,877.659 746.548,878.326 744.5,877.5C 745.376,876.749 746.376,876.249 747.5,876C 745.015,873.79 743.182,874.29 742,877.5C 741.082,875.624 739.582,874.624 737.5,874.5C 736.209,874.737 735.209,874.404 734.5,873.5C 758.167,873.5 781.833,873.5 805.5,873.5 Z"/></g>
<g><path style="opacity:1" fill="#3f839d" d="M 633.5,874.5 C 635.833,874.5 638.167,874.5 640.5,874.5C 641.469,875.309 642.302,876.309 643,877.5C 644.077,874.211 645.91,873.711 648.5,876C 647.376,876.249 646.376,876.749 645.5,877.5C 648.086,878.21 650.086,877.21 651.5,874.5C 652.5,875 653.5,875.5 654.5,876C 653.304,876.654 653.304,877.154 654.5,877.5C 655.799,876.91 656.632,875.91 657,874.5C 658.359,875.365 659.526,876.365 660.5,877.5C 659.638,878.39 659.138,879.39 659,880.5C 659.741,881.641 660.575,881.641 661.5,880.5C 662.5,881.5 663.5,882.5 664.5,883.5C 663.257,885.833 661.591,886.5 659.5,885.5C 658.646,886.522 657.646,887.355 656.5,888C 658.056,889.599 659.723,891.099 661.5,892.5C 660.011,892.533 658.678,893.033 657.5,894C 658.653,898.535 661.32,900.535 665.5,900C 663.764,901.947 661.93,903.781 660,905.5C 659.564,902.716 658.064,901.55 655.5,902C 656.844,904.144 656.51,905.977 654.5,907.5C 653.167,907.5 651.833,907.5 650.5,907.5C 647.89,906.843 645.557,905.509 643.5,903.5C 643.833,902.5 644.5,901.833 645.5,901.5C 647.777,901.015 649.944,901.681 652,903.5C 652.215,901.58 651.548,899.914 650,898.5C 649,901.167 648,901.167 647,898.5C 646.282,899.451 645.449,899.617 644.5,899C 646.167,897.5 647.833,896 649.5,894.5C 650.192,895.025 650.692,895.692 651,896.5C 651.374,895.584 651.874,894.75 652.5,894C 651.874,893.25 651.374,892.416 651,891.5C 650.323,893.689 649.156,894.022 647.5,892.5C 647.002,893.603 646.669,894.603 646.5,895.5C 644.747,893.021 642.747,890.687 640.5,888.5C 639.494,888.938 639.494,889.604 640.5,890.5C 638.014,893.279 638.014,896.112 640.5,899C 637.933,900.406 636.6,902.24 636.5,904.5C 635.449,903.115 634.116,902.115 632.5,901.5C 631.571,900.311 631.238,898.978 631.5,897.5C 635.554,899.406 636.388,898.406 634,894.5C 633.692,895.308 633.192,895.975 632.5,896.5C 631.304,896.154 631.304,895.654 632.5,895C 630.508,894.426 629.008,893.259 628,891.5C 626.676,894.244 624.509,895.577 621.5,895.5C 621.48,893.857 622.147,892.524 623.5,891.5C 623.192,890.692 622.692,890.025 622,889.5C 621.333,890.833 620.667,892.167 620,893.5C 619,892.167 618,890.833 617,889.5C 615.478,891.741 614.145,894.074 613,896.5C 612.837,892.636 614.004,889.136 616.5,886C 614.846,883.704 613.179,881.371 611.5,879C 614.364,877.587 617.03,876.087 619.5,874.5C 619.761,877.915 620.928,877.915 623,874.5C 624.333,875.167 625.333,876.167 626,877.5C 627.182,874.29 629.015,873.79 631.5,876C 630.376,876.249 629.376,876.749 628.5,877.5C 631.096,878.361 632.763,877.361 633.5,874.5 Z"/></g>
<g><path style="opacity:1" fill="#5e9bac" d="M 690.5,842.5 C 691.329,850.323 691.829,858.323 692,866.5C 692.718,865.549 693.551,865.383 694.5,866C 692.078,867.888 692.078,869.888 694.5,872C 691.954,874.386 689.287,876.553 686.5,878.5C 686.167,878.167 685.833,877.833 685.5,877.5C 689.481,876.506 689.481,875.506 685.5,874.5C 683.611,877.992 681.278,878.659 678.5,876.5C 676.786,877.609 676.119,876.942 676.5,874.5C 674.187,875.668 671.854,877.002 669.5,878.5C 669.167,878.167 668.833,877.833 668.5,877.5C 669.376,876.749 670.376,876.249 671.5,876C 669.015,873.79 667.182,874.29 666,877.5C 663.782,873.742 661.948,873.742 660.5,877.5C 659.526,876.365 658.359,875.365 657,874.5C 656.632,875.91 655.799,876.91 654.5,877.5C 653.304,877.154 653.304,876.654 654.5,876C 653.5,875.5 652.5,875 651.5,874.5C 650.086,877.21 648.086,878.21 645.5,877.5C 646.376,876.749 647.376,876.249 648.5,876C 645.91,873.711 644.077,874.211 643,877.5C 642.302,876.309 641.469,875.309 640.5,874.5C 644.735,873.564 649.069,873.231 653.5,873.5C 665.897,873.13 678.23,872.797 690.5,872.5C 690.5,862.5 690.5,852.5 690.5,842.5 Z"/></g>
<g><path style="opacity:1" fill="#cfdce6" d="M 823.5,873.5 C 824.495,884.654 824.828,895.988 824.5,907.5C 819.167,907.5 813.833,907.5 808.5,907.5C 809.919,906.549 811.585,906.216 813.5,906.5C 816.833,906.5 820.167,906.5 823.5,906.5C 823.5,895.5 823.5,884.5 823.5,873.5 Z"/></g>
<g><path style="opacity:1" fill="#458ba0" d="M 725.5,898.5 C 723.305,898.778 721.139,898.778 719,898.5C 718.376,896.246 717.043,894.579 715,893.5C 714.383,894.449 714.549,895.282 715.5,896C 714.833,896.667 714.167,896.667 713.5,896C 712.406,894.22 711.406,892.386 710.5,890.5C 709.667,891.5 708.833,892.5 708,893.5C 708.263,892.049 708.096,890.716 707.5,889.5C 704.956,891.611 704.956,893.778 707.5,896C 705.054,897.483 705.388,898.649 708.5,899.5C 709.895,898.185 710.895,898.519 711.5,900.5C 710.34,900.437 709.006,900.77 707.5,901.5C 706.116,898.867 704.782,898.867 703.5,901.5C 707.255,903.956 707.255,906.29 703.5,908.5C 702.328,908.081 701.328,907.415 700.5,906.5C 701.833,905.167 701.833,903.833 700.5,902.5C 702.818,899.701 702.485,897.034 699.5,894.5C 698.604,895.506 697.938,895.506 697.5,894.5C 698.14,891.352 699.14,891.019 700.5,893.5C 700.833,893.167 701.167,892.833 701.5,892.5C 700.5,890.5 699.5,888.5 698.5,886.5C 699.687,885.481 700.687,884.314 701.5,883C 697.484,883.213 697.484,882.213 701.5,880C 699.5,878.333 697.5,876.667 695.5,875C 696.833,874 696.833,873 695.5,872C 697.715,870.609 697.715,868.943 695.5,867C 696.126,866.25 696.626,865.416 697,864.5C 698.916,864.355 700.749,864.855 702.5,866C 701.039,867.351 699.706,868.851 698.5,870.5C 699.391,871.59 700.391,871.59 701.5,870.5C 702.551,871.885 703.884,872.885 705.5,873.5C 705.64,872.236 705.64,871.069 705.5,870C 706.742,869.689 707.742,870.189 708.5,871.5C 709.192,870.975 709.692,870.308 710,869.5C 710.5,870.667 711.333,871.5 712.5,872C 711.333,872.5 710.5,873.333 710,874.5C 709.465,872.729 708.631,872.396 707.5,873.5C 706.674,874.451 706.508,875.451 707,876.5C 708.255,877.211 709.421,878.044 710.5,879C 709.833,879.333 709.167,879.667 708.5,880C 710.204,881.636 711.704,883.469 713,885.5C 713.333,884.833 713.667,884.167 714,883.5C 714.196,885.286 715.029,886.619 716.5,887.5C 716.19,885.799 716.69,884.132 718,882.5C 720.149,883.652 721.982,885.152 723.5,887C 722.5,887.833 721.5,888.667 720.5,889.5C 722.656,893.139 721.823,893.472 718,890.5C 717.833,890.833 717.667,891.167 717.5,891.5C 719.606,892.897 721.273,894.73 722.5,897C 723.449,897.617 724.282,897.451 725,896.5C 725.464,897.094 725.631,897.761 725.5,898.5 Z"/></g>
<g><path style="opacity:1" fill="#4b8ea3" d="M 823.5,873.5 C 823.5,884.5 823.5,895.5 823.5,906.5C 820.167,906.5 816.833,906.5 813.5,906.5C 814.879,904.195 816.713,902.195 819,900.5C 819.535,902.271 820.369,902.604 821.5,901.5C 818.956,899.608 818.956,897.775 821.5,896C 820.167,896 818.833,896 817.5,896C 818.815,894.605 818.481,893.605 816.5,893C 818.055,891.354 819.721,891.021 821.5,892C 821.167,891.667 820.833,891.333 820.5,891C 822.807,889.172 822.474,887.506 819.5,886C 821.405,885.174 821.739,884.007 820.5,882.5C 818.672,884.807 817.006,884.474 815.5,881.5C 815.938,880.494 816.604,880.494 817.5,881.5C 820.222,879.044 820.056,878.377 817,879.5C 816.323,877.311 815.156,876.978 813.5,878.5C 812.029,877.583 810.529,876.583 809,875.5C 808.705,877.931 807.538,879.764 805.5,881C 806.833,881.667 807.833,882.667 808.5,884C 807.167,883.667 805.833,883.333 804.5,883C 804.957,883.414 805.291,883.914 805.5,884.5C 804.252,887.07 803.252,889.737 802.5,892.5C 801.5,892.167 800.833,891.5 800.5,890.5C 800.846,889.304 801.346,889.304 802,890.5C 802.601,889.035 802.101,888.035 800.5,887.5C 799.808,888.025 799.308,888.692 799,889.5C 798.417,887.998 797.584,886.665 796.5,885.5C 797.028,887.385 796.362,889.052 794.5,890.5C 794.737,893.063 795.237,893.063 796,890.5C 798.269,890.933 800.436,892.266 802.5,894.5C 805.099,897.094 804.766,898.594 801.5,899C 802.308,899.308 802.975,899.808 803.5,900.5C 802.263,901.281 801.263,902.281 800.5,903.5C 801.631,904.604 802.465,904.271 803,902.5C 804.366,904.362 805.866,906.028 807.5,907.5C 796.833,907.5 786.167,907.5 775.5,907.5C 780.54,907.062 785.54,906.062 790.5,904.5C 792.591,905.5 794.257,904.833 795.5,902.5C 794.726,901.289 793.893,901.289 793,902.5C 793.077,901.262 792.911,900.262 792.5,899.5C 791.833,900.833 791.167,902.167 790.5,903.5C 790.167,903.333 789.833,903.167 789.5,903C 789.004,901.004 788.004,899.337 786.5,898C 787.34,896.334 786.84,896.167 785,897.5C 782.474,894.937 780.807,895.603 780,899.5C 779.626,898.584 779.126,897.75 778.5,897C 779.981,896.02 781.315,894.853 782.5,893.5C 780.833,892.5 779.5,891.167 778.5,889.5C 776.535,892.12 775.035,891.786 774,888.5C 773.667,889.833 773.333,891.167 773,892.5C 771.833,891 770.667,889.5 769.5,888C 770.744,887.544 771.577,888.044 772,889.5C 772.98,888.019 774.147,886.685 775.5,885.5C 777.792,886.79 779.792,888.457 781.5,890.5C 783.809,889.067 785.309,889.734 786,892.5C 787.548,891.086 788.215,889.42 788,887.5C 786.209,885.487 784.875,885.487 784,887.5C 783.146,885.285 781.979,883.952 780.5,883.5C 780.667,882.833 780.833,882.167 781,881.5C 781.308,882.308 781.808,882.975 782.5,883.5C 782.109,882.109 782.942,881.109 785,880.5C 788.417,882.072 788.251,883.239 784.5,884C 787.838,885.516 790.672,887.683 793,890.5C 793.617,889.551 793.451,888.718 792.5,888C 794.072,885.962 795.072,883.629 795.5,881C 794.175,881.148 793.008,880.982 792,880.5C 792.138,879.39 792.638,878.39 793.5,877.5C 793.414,876.504 793.748,875.671 794.5,875C 798.086,873.892 801.753,873.392 805.5,873.5C 811.048,872.491 817.048,872.491 823.5,873.5 Z"/></g>
<g><path style="opacity:1" fill="#488aa1" d="M 621.5,872.5 C 625.5,873.167 629.5,873.833 633.5,874.5C 632.763,877.361 631.096,878.361 628.5,877.5C 629.376,876.749 630.376,876.249 631.5,876C 629.015,873.79 627.182,874.29 626,877.5C 625.333,876.167 624.333,875.167 623,874.5C 620.928,877.915 619.761,877.915 619.5,874.5C 617.03,876.087 614.364,877.587 611.5,879C 613.179,881.371 614.846,883.704 616.5,886C 614.004,889.136 612.837,892.636 613,896.5C 614.145,894.074 615.478,891.741 617,889.5C 618,890.833 619,892.167 620,893.5C 620.667,892.167 621.333,890.833 622,889.5C 622.692,890.025 623.192,890.692 623.5,891.5C 622.147,892.524 621.48,893.857 621.5,895.5C 624.509,895.577 626.676,894.244 628,891.5C 629.008,893.259 630.508,894.426 632.5,895C 631.304,895.654 631.304,896.154 632.5,896.5C 633.192,895.975 633.692,895.308 634,894.5C 636.388,898.406 635.554,899.406 631.5,897.5C 631.238,898.978 631.571,900.311 632.5,901.5C 634.116,902.115 635.449,903.115 636.5,904.5C 636.6,902.24 637.933,900.406 640.5,899C 638.014,896.112 638.014,893.279 640.5,890.5C 639.494,889.604 639.494,888.938 640.5,888.5C 642.747,890.687 644.747,893.021 646.5,895.5C 646.669,894.603 647.002,893.603 647.5,892.5C 649.156,894.022 650.323,893.689 651,891.5C 651.374,892.416 651.874,893.25 652.5,894C 651.874,894.75 651.374,895.584 651,896.5C 650.692,895.692 650.192,895.025 649.5,894.5C 647.833,896 646.167,897.5 644.5,899C 645.449,899.617 646.282,899.451 647,898.5C 648,901.167 649,901.167 650,898.5C 651.548,899.914 652.215,901.58 652,903.5C 649.944,901.681 647.777,901.015 645.5,901.5C 644.5,901.833 643.833,902.5 643.5,903.5C 645.557,905.509 647.89,906.843 650.5,907.5C 631.833,907.5 613.167,907.5 594.5,907.5C 594.333,896.162 594.5,884.828 595,873.5C 603.684,872.539 612.517,872.205 621.5,872.5 Z"/></g>
<g><path style="opacity:1" fill="#4a8da2" d="M 766.5,907.5 C 756.167,907.5 745.833,907.5 735.5,907.5C 734.791,906.596 733.791,906.263 732.5,906.5C 733.128,903.91 734.295,901.577 736,899.5C 736.333,900.5 736.667,901.5 737,902.5C 737.667,900.5 739,899.167 741,898.5C 742.903,898.694 744.737,898.694 746.5,898.5C 746.167,897.833 745.833,897.167 745.5,896.5C 748.154,894.105 747.821,892.105 744.5,890.5C 744.846,889.304 745.346,889.304 746,890.5C 745.852,889.175 746.018,888.008 746.5,887C 745.551,886.383 744.718,886.549 744,887.5C 743.749,885.567 743.249,883.734 742.5,882C 743.416,881.626 744.25,881.126 745,880.5C 746.803,884.513 748.803,888.513 751,892.5C 750.007,888.453 751.34,885.119 755,882.5C 755.004,884.368 754.504,886.202 753.5,888C 753.966,890.186 754.299,892.352 754.5,894.5C 753.737,895.719 752.737,896.719 751.5,897.5C 752.325,898.386 753.325,898.719 754.5,898.5C 754.347,904.324 755.013,904.657 756.5,899.5C 762.94,897.334 762.94,896.001 756.5,895.5C 755.167,894.833 755.167,894.167 756.5,893.5C 758.156,895.022 759.323,894.689 760,892.5C 760.368,893.91 761.201,894.91 762.5,895.5C 762.669,894.603 763.002,893.603 763.5,892.5C 765.611,891.636 767.444,891.636 769,892.5C 769.167,892.833 769.333,893.167 769.5,893.5C 767.833,894.167 766.167,894.833 764.5,895.5C 767.298,897.566 766.965,899.066 763.5,900C 764.447,902.777 763.447,904.777 760.5,906C 762.708,906.191 764.708,906.691 766.5,907.5 Z"/></g>
<g><path style="opacity:1" fill="#4a8da2" d="M 660.5,877.5 C 663.969,879.857 665.969,883.19 666.5,887.5C 667.76,885.647 667.76,883.814 666.5,882C 667.416,881.626 668.25,881.126 669,880.5C 672.417,882.072 672.251,883.239 668.5,884C 670.081,884.707 671.581,885.54 673,886.5C 673.333,886.167 673.667,885.833 674,885.5C 674.374,886.416 674.874,887.25 675.5,888C 674.874,888.75 674.374,889.584 674,890.5C 673.421,886.614 672.588,886.614 671.5,890.5C 672.875,892.163 672.542,893.497 670.5,894.5C 670.997,897.55 672.497,898.55 675,897.5C 675.29,899.952 675.956,902.285 677,904.5C 678.923,900.695 681.756,899.861 685.5,902C 684.289,902.893 684.289,903.726 685.5,904.5C 686.192,903.975 686.692,903.308 687,902.5C 687.697,904.584 688.864,906.251 690.5,907.5C 678.5,907.5 666.5,907.5 654.5,907.5C 656.51,905.977 656.844,904.144 655.5,902C 658.064,901.55 659.564,902.716 660,905.5C 661.93,903.781 663.764,901.947 665.5,900C 661.32,900.535 658.653,898.535 657.5,894C 658.678,893.033 660.011,892.533 661.5,892.5C 659.723,891.099 658.056,889.599 656.5,888C 657.646,887.355 658.646,886.522 659.5,885.5C 661.591,886.5 663.257,885.833 664.5,883.5C 663.5,882.5 662.5,881.5 661.5,880.5C 660.575,881.641 659.741,881.641 659,880.5C 659.138,879.39 659.638,878.39 660.5,877.5 Z"/></g>
<g><path style="opacity:1" fill="#3f829d" d="M 813.5,906.5 C 811.585,906.216 809.919,906.549 808.5,907.5C 808.167,907.5 807.833,907.5 807.5,907.5C 805.866,906.028 804.366,904.362 803,902.5C 802.465,904.271 801.631,904.604 800.5,903.5C 801.263,902.281 802.263,901.281 803.5,900.5C 802.975,899.808 802.308,899.308 801.5,899C 804.766,898.594 805.099,897.094 802.5,894.5C 800.436,892.266 798.269,890.933 796,890.5C 795.237,893.063 794.737,893.063 794.5,890.5C 796.362,889.052 797.028,887.385 796.5,885.5C 797.584,886.665 798.417,887.998 799,889.5C 799.308,888.692 799.808,888.025 800.5,887.5C 802.101,888.035 802.601,889.035 802,890.5C 801.346,889.304 800.846,889.304 800.5,890.5C 800.833,891.5 801.5,892.167 802.5,892.5C 803.252,889.737 804.252,887.07 805.5,884.5C 805.291,883.914 804.957,883.414 804.5,883C 805.833,883.333 807.167,883.667 808.5,884C 807.833,882.667 806.833,881.667 805.5,881C 807.538,879.764 808.705,877.931 809,875.5C 810.529,876.583 812.029,877.583 813.5,878.5C 815.156,876.978 816.323,877.311 817,879.5C 820.056,878.377 820.222,879.044 817.5,881.5C 816.604,880.494 815.938,880.494 815.5,881.5C 817.006,884.474 818.672,884.807 820.5,882.5C 821.739,884.007 821.405,885.174 819.5,886C 822.474,887.506 822.807,889.172 820.5,891C 820.833,891.333 821.167,891.667 821.5,892C 819.721,891.021 818.055,891.354 816.5,893C 818.481,893.605 818.815,894.605 817.5,896C 818.833,896 820.167,896 821.5,896C 818.956,897.775 818.956,899.608 821.5,901.5C 820.369,902.604 819.535,902.271 819,900.5C 816.713,902.195 814.879,904.195 813.5,906.5 Z"/></g>
<g><path style="opacity:1" fill="#85a0bf" d="M 2032.5,896.5 C 2032.5,896.833 2032.5,897.167 2032.5,897.5C 2032.55,975.095 2032.55,1052.43 2032.5,1129.5C 2031.18,1051.97 2031.18,974.299 2032.5,896.5 Z"/></g>
<g><path style="opacity:1" fill="#054381" d="M 2032.5,897.5 C 2048.83,897.5 2065.17,897.5 2081.5,897.5C 2081.17,935.67 2081.5,973.67 2082.5,1011.5C 2083.18,1013.16 2084.01,1014.83 2085,1016.5C 2094.76,1012.56 2104.93,1010.22 2115.5,1009.5C 2122.68,1009.23 2129.68,1008.57 2136.5,1007.5C 2152.64,1006.24 2168.31,1008.58 2183.5,1014.5C 2185.03,1016.25 2187.03,1017.25 2189.5,1017.5C 2202.46,1022.81 2213.46,1030.81 2222.5,1041.5C 2222.43,1043.03 2223.09,1044.03 2224.5,1044.5C 2230.75,1051.11 2235.41,1058.77 2238.5,1067.5C 2240.32,1072.33 2242.32,1076.99 2244.5,1081.5C 2245.61,1083.6 2246.28,1085.93 2246.5,1088.5C 2247.01,1093.39 2248.01,1098.06 2249.5,1102.5C 2250.47,1104.95 2250.81,1107.61 2250.5,1110.5C 2250.8,1119.58 2250.47,1128.58 2249.5,1137.5C 2250.63,1143.65 2250.3,1149.65 2248.5,1155.5C 2247.34,1158.27 2246.68,1161.27 2246.5,1164.5C 2246.41,1166.79 2245.74,1168.79 2244.5,1170.5C 2241.99,1174.87 2239.99,1179.53 2238.5,1184.5C 2236.34,1189.5 2233.67,1194.17 2230.5,1198.5C 2229.6,1199.29 2228.93,1200.29 2228.5,1201.5C 2223.43,1208.08 2217.76,1214.24 2211.5,1220C 2204.52,1224.82 2197.18,1228.99 2189.5,1232.5C 2186.91,1232.46 2184.91,1233.46 2183.5,1235.5C 2175.4,1239.53 2166.74,1241.86 2157.5,1242.5C 2131.83,1243.83 2106.17,1243.83 2080.5,1242.5C 2071.88,1241.66 2063.54,1239.99 2055.5,1237.5C 2052.5,1235.72 2049.16,1234.72 2045.5,1234.5C 2041.46,1233.93 2037.8,1232.6 2034.5,1230.5C 2033.91,1196.67 2033.25,1163.01 2032.5,1129.5C 2032.55,1052.43 2032.55,975.095 2032.5,897.5 Z M 2157.5,1058.5 C 2159.85,1060.34 2162.52,1061.67 2165.5,1062.5C 2170.14,1066.14 2174.81,1069.8 2179.5,1073.5C 2179.93,1074.71 2180.6,1075.71 2181.5,1076.5C 2184.51,1081.2 2187.51,1085.87 2190.5,1090.5C 2196.24,1107.13 2197.91,1124.8 2195.5,1143.5C 2194.62,1145.14 2193.95,1146.97 2193.5,1149C 2193.57,1149.76 2193.9,1150.26 2194.5,1150.5C 2192.81,1156.93 2190.14,1163.26 2186.5,1169.5C 2184.92,1172.43 2182.92,1175.09 2180.5,1177.5C 2176.15,1181.85 2171.49,1185.85 2166.5,1189.5C 2163.67,1190.08 2161.34,1191.41 2159.5,1193.5C 2150.92,1196.22 2142.25,1197.88 2133.5,1198.5C 2124.15,1198.57 2114.82,1198.23 2105.5,1197.5C 2102.73,1196.34 2099.73,1195.68 2096.5,1195.5C 2092.76,1193.9 2088.76,1192.9 2084.5,1192.5C 2083.51,1149.91 2083.17,1107.24 2083.5,1064.5C 2084.79,1064.74 2085.79,1064.4 2086.5,1063.5C 2087.79,1063.74 2088.79,1063.4 2089.5,1062.5C 2092.54,1062.27 2095.21,1061.27 2097.5,1059.5C 2100.97,1058.9 2104.3,1057.9 2107.5,1056.5C 2110.07,1056.28 2112.4,1055.61 2114.5,1054.5C 2129.17,1052.39 2143.51,1053.72 2157.5,1058.5 Z"/></g>
<g><path style="opacity:1" fill="#225c90" d="M 2032.5,897.5 C 2032.5,897.167 2032.5,896.833 2032.5,896.5C 2049.17,896.5 2065.83,896.5 2082.5,896.5C 2082.5,934.833 2082.5,973.167 2082.5,1011.5C 2081.5,973.67 2081.17,935.67 2081.5,897.5C 2065.17,897.5 2048.83,897.5 2032.5,897.5 Z"/></g>
<g><path style="opacity:1" fill="#6da6b4" d="M 690.5,907.5 C 691.49,913.31 691.823,919.31 691.5,925.5C 691.5,925.833 691.5,926.167 691.5,926.5C 692.087,931.182 692.087,936.015 691.5,941C 691.558,944.276 692.224,947.276 693.5,950C 692.193,955.254 691.526,960.754 691.5,966.5C 691.667,971.833 691.833,977.167 692,982.5C 692.424,978.81 693.258,978.643 694.5,982C 692.606,983.079 692.273,984.413 693.5,986C 692.217,989.064 691.55,992.397 691.5,996C 691.774,1000.78 692.44,1005.12 693.5,1009C 692.584,1009.28 691.918,1009.78 691.5,1010.5C 691.167,1010.5 690.833,1010.5 690.5,1010.5C 690.5,976.167 690.5,941.833 690.5,907.5 Z"/></g>
<g><path style="opacity:1" fill="#dee7ee" d="M 731.5,906.5 C 731.833,906.5 732.167,906.5 732.5,906.5C 733.791,906.263 734.791,906.596 735.5,907.5C 733.167,907.5 730.833,907.5 728.5,907.5C 728.667,941.835 728.5,976.168 728,1010.5C 715.402,1011.83 702.902,1011.83 690.5,1010.5C 690.833,1010.5 691.167,1010.5 691.5,1010.5C 700.833,1010.5 710.167,1010.5 719.5,1010.5C 722.119,1010.77 724.619,1010.44 727,1009.5C 727.5,975.168 727.667,940.835 727.5,906.5C 728.833,906.5 730.167,906.5 731.5,906.5 Z"/></g>
<g><path style="opacity:1" fill="#004281" d="M 1213.5,911.5 C 1229.83,911.5 1246.17,911.5 1262.5,911.5C 1262.5,958.167 1262.5,1004.83 1262.5,1051.5C 1306.83,1051.5 1351.17,1051.5 1395.5,1051.5C 1395.5,1066.83 1395.5,1082.17 1395.5,1097.5C 1351,1097.17 1306.66,1097.5 1262.5,1098.5C 1262.5,1098.83 1262.5,1099.17 1262.5,1099.5C 1262.5,1148.83 1262.5,1198.17 1262.5,1247.5C 1246.17,1247.5 1229.83,1247.5 1213.5,1247.5C 1213.5,1197.5 1213.5,1147.5 1213.5,1097.5C 1169.17,1097.5 1124.83,1097.5 1080.5,1097.5C 1080.5,1082.17 1080.5,1066.83 1080.5,1051.5C 1124.83,1051.5 1169.17,1051.5 1213.5,1051.5C 1213.5,1004.83 1213.5,958.167 1213.5,911.5 Z"/></g>
<g><path style="opacity:1" fill="#ff7822" d="M 486.5,939.5 C 500.5,939.5 514.5,939.5 528.5,939.5C 528.333,977.835 528.5,1016.17 529,1054.5C 532.934,1055.82 536.767,1055.82 540.5,1054.5C 540.833,1053.17 541.167,1053.17 541.5,1054.5C 543.389,1055.74 545.389,1055.74 547.5,1054.5C 550.833,1055.83 554.167,1055.83 557.5,1054.5C 559.833,1054.5 562.167,1054.5 564.5,1054.5C 566.389,1055.74 568.389,1055.74 570.5,1054.5C 571.833,1054.5 573.167,1054.5 574.5,1054.5C 576.611,1055.74 578.611,1055.74 580.5,1054.5C 580.833,1053.17 581.167,1053.17 581.5,1054.5C 583.389,1055.74 585.389,1055.74 587.5,1054.5C 590.833,1055.83 594.167,1055.83 597.5,1054.5C 597.833,1053.17 598.167,1053.17 598.5,1054.5C 603.833,1055.83 609.167,1055.83 614.5,1054.5C 616.833,1054.5 619.167,1054.5 621.5,1054.5C 623.389,1055.74 625.389,1055.74 627.5,1054.5C 628.833,1054.5 630.167,1054.5 631.5,1054.5C 633.042,1055.3 634.708,1055.63 636.5,1055.5C 636.5,1069.5 636.5,1083.5 636.5,1097.5C 600.906,1098.49 565.24,1098.83 529.5,1098.5C 529.5,1136.5 529.5,1174.5 529.5,1212.5C 515.167,1212.5 500.833,1212.5 486.5,1212.5C 486.5,1174.83 486.5,1137.17 486.5,1099.5C 486.5,1099.17 486.5,1098.83 486.5,1098.5C 451.167,1097.83 415.833,1097.17 380.5,1096.5C 380.5,1082.83 380.5,1069.17 380.5,1055.5C 382.099,1055.77 383.432,1055.43 384.5,1054.5C 386.611,1055.74 388.611,1055.74 390.5,1054.5C 390.833,1053.17 391.167,1053.17 391.5,1054.5C 393.389,1055.74 395.389,1055.74 397.5,1054.5C 400.833,1055.83 404.167,1055.83 407.5,1054.5C 409.833,1054.5 412.167,1054.5 414.5,1054.5C 417.833,1055.83 421.167,1055.83 424.5,1054.5C 426.833,1054.5 429.167,1054.5 431.5,1054.5C 433.389,1055.74 435.389,1055.74 437.5,1054.5C 438.833,1054.5 440.167,1054.5 441.5,1054.5C 443.611,1055.74 445.611,1055.74 447.5,1054.5C 447.833,1053.17 448.167,1053.17 448.5,1054.5C 450.389,1055.74 452.389,1055.74 454.5,1054.5C 457.833,1055.83 461.167,1055.83 464.5,1054.5C 464.833,1053.17 465.167,1053.17 465.5,1054.5C 467.389,1055.74 469.389,1055.74 471.5,1054.5C 474.5,1055.83 477.5,1055.83 480.5,1054.5C 481.652,1055.62 482.652,1055.62 483.5,1054.5C 483.81,1053.26 484.31,1053.26 485,1054.5C 485.167,1016 485.667,977.664 486.5,939.5 Z"/></g>
<g><path style="opacity:1" fill="#ffbc83" d="M 486.5,939.5 C 500.657,938.504 514.99,938.171 529.5,938.5C 529.333,976.835 529.5,1015.17 530,1053.5C 533.457,1053.4 536.957,1053.74 540.5,1054.5C 536.767,1055.82 532.934,1055.82 529,1054.5C 528.5,1016.17 528.333,977.835 528.5,939.5C 514.5,939.5 500.5,939.5 486.5,939.5 Z"/></g>
<g><path style="opacity:1" fill="#43899f" d="M 725.5,898.5 C 729.096,900.496 731.096,903.163 731.5,906.5C 730.167,906.5 728.833,906.5 727.5,906.5C 727.667,940.835 727.5,975.168 727,1009.5C 724.619,1010.44 722.119,1010.77 719.5,1010.5C 716.506,1007.87 716.006,1004.87 718,1001.5C 720.084,1005.17 721.917,1005.17 723.5,1001.5C 721.987,1000.15 720.653,998.654 719.5,997C 719.905,996.055 720.572,995.388 721.5,995C 720.312,992.276 718.645,989.943 716.5,988C 719.844,987.43 720.177,986.264 717.5,984.5C 718,983.5 718.5,982.5 719,981.5C 719.5,982.667 720.333,983.5 721.5,984C 721.043,984.414 720.709,984.914 720.5,985.5C 721.167,986.833 721.833,986.833 722.5,985.5C 724.022,983.844 723.689,982.677 721.5,982C 724.044,980.901 724.044,979.735 721.5,978.5C 720.402,979.615 719.235,979.615 718,978.5C 716.707,981.01 714.874,981.677 712.5,980.5C 711.167,979.5 711.167,978.5 712.5,977.5C 713.7,976.469 715.034,975.635 716.5,975C 715.692,974.692 715.025,974.192 714.5,973.5C 716.021,973.12 717.687,972.954 719.5,973C 717.254,971.961 715.087,970.794 713,969.5C 711.738,971.303 710.071,972.636 708,973.5C 705.873,973.452 703.706,973.285 701.5,973C 702.791,976.025 702.124,976.359 699.5,974C 700.833,973 700.833,972 699.5,971C 705.736,970.971 706.069,969.137 700.5,965.5C 698.22,968.186 697.553,968.019 698.5,965C 698.223,963.108 697.223,961.775 695.5,961C 696.678,960.033 698.011,959.533 699.5,959.5C 699.291,958.914 698.957,958.414 698.5,958C 700.259,956.992 701.426,955.492 702,953.5C 703.881,954.354 705.714,954.021 707.5,952.5C 708.606,950.716 708.606,948.882 707.5,947C 707.95,945.715 708.617,944.548 709.5,943.5C 708.738,943.089 707.738,942.923 706.5,943C 707.696,942.346 707.696,941.846 706.5,941.5C 705.147,943.183 703.48,944.516 701.5,945.5C 700.509,943.677 699.176,942.177 697.5,941C 698.833,940.333 699.833,939.333 700.5,938C 699.258,937.689 698.258,938.189 697.5,939.5C 697.167,939.167 696.833,938.833 696.5,938.5C 698.748,935.874 698.581,933.207 696,930.5C 695.667,930.833 695.333,931.167 695,931.5C 694.78,929.027 693.614,927.36 691.5,926.5C 691.5,926.167 691.5,925.833 691.5,925.5C 692.496,925.586 693.329,925.252 694,924.5C 694.748,926.332 695.748,927.999 697,929.5C 697.617,928.551 697.451,927.718 696.5,927C 697.667,926.5 698.5,925.667 699,924.5C 700.646,926.055 700.979,927.721 700,929.5C 700.718,928.549 701.551,928.383 702.5,929C 701.484,930.677 700.484,932.343 699.5,934C 700.01,935.826 700.844,935.993 702,934.5C 703.077,937.789 704.91,938.289 707.5,936C 707.5,935 707.5,934 707.5,933C 706.833,932.667 706.167,932.333 705.5,932C 707.378,930.007 707.712,927.841 706.5,925.5C 705.719,926.729 705.219,928.062 705,929.5C 704.5,928.333 703.667,927.5 702.5,927C 703.308,926.692 703.975,926.192 704.5,925.5C 703.876,923.246 702.543,921.579 700.5,920.5C 701.105,918.519 702.105,918.185 703.5,919.5C 705.593,917.757 707.76,917.09 710,917.5C 712.167,919 712,920.167 709.5,921C 711.105,922.36 712.605,923.86 714,925.5C 714.626,923.009 715.459,923.009 716.5,925.5C 717.451,924.674 718.451,924.508 719.5,925C 719.167,925.333 718.833,925.667 718.5,926C 719.5,926.5 720.5,927 721.5,927.5C 722.604,926.369 722.271,925.535 720.5,925C 723.178,921.707 722.512,919.041 718.5,917C 719.126,916.25 719.626,915.416 720,914.5C 721,915.833 722,915.833 723,914.5C 723.456,913.256 722.956,912.423 721.5,912C 722.308,911.692 722.975,911.192 723.5,910.5C 721.939,909.653 720.439,909.986 719,911.5C 717.913,909.068 717.413,909.402 717.5,912.5C 716.127,912.657 714.793,912.49 713.5,912C 715.032,911.3 716.032,910.134 716.5,908.5C 715.85,905.812 715.85,903.312 716.5,901C 718.842,899.602 721.175,899.935 723.5,902C 723.167,902.333 722.833,902.667 722.5,903C 724.659,906.318 725.325,906.151 724.5,902.5C 725.025,901.808 725.692,901.308 726.5,901C 725.748,900.329 725.414,899.496 725.5,898.5 Z"/></g>
<g><path style="opacity:1" fill="#40849d" d="M 691.5,926.5 C 693.614,927.36 694.78,929.027 695,931.5C 695.333,931.167 695.667,930.833 696,930.5C 698.581,933.207 698.748,935.874 696.5,938.5C 696.833,938.833 697.167,939.167 697.5,939.5C 698.258,938.189 699.258,937.689 700.5,938C 699.833,939.333 698.833,940.333 697.5,941C 699.176,942.177 700.509,943.677 701.5,945.5C 703.48,944.516 705.147,943.183 706.5,941.5C 707.696,941.846 707.696,942.346 706.5,943C 707.738,942.923 708.738,943.089 709.5,943.5C 708.617,944.548 707.95,945.715 707.5,947C 708.606,948.882 708.606,950.716 707.5,952.5C 705.714,954.021 703.881,954.354 702,953.5C 701.426,955.492 700.259,956.992 698.5,958C 698.957,958.414 699.291,958.914 699.5,959.5C 698.011,959.533 696.678,960.033 695.5,961C 697.223,961.775 698.223,963.108 698.5,965C 697.553,968.019 698.22,968.186 700.5,965.5C 706.069,969.137 705.736,970.971 699.5,971C 700.833,972 700.833,973 699.5,974C 702.124,976.359 702.791,976.025 701.5,973C 703.706,973.285 705.873,973.452 708,973.5C 710.071,972.636 711.738,971.303 713,969.5C 715.087,970.794 717.254,971.961 719.5,973C 717.687,972.954 716.021,973.12 714.5,973.5C 715.025,974.192 715.692,974.692 716.5,975C 715.034,975.635 713.7,976.469 712.5,977.5C 711.167,978.5 711.167,979.5 712.5,980.5C 714.874,981.677 716.707,981.01 718,978.5C 719.235,979.615 720.402,979.615 721.5,978.5C 724.044,979.735 724.044,980.901 721.5,982C 723.689,982.677 724.022,983.844 722.5,985.5C 721.833,986.833 721.167,986.833 720.5,985.5C 720.709,984.914 721.043,984.414 721.5,984C 720.333,983.5 719.5,982.667 719,981.5C 718.5,982.5 718,983.5 717.5,984.5C 720.177,986.264 719.844,987.43 716.5,988C 718.645,989.943 720.312,992.276 721.5,995C 720.572,995.388 719.905,996.055 719.5,997C 720.653,998.654 721.987,1000.15 723.5,1001.5C 721.917,1005.17 720.084,1005.17 718,1001.5C 716.006,1004.87 716.506,1007.87 719.5,1010.5C 710.167,1010.5 700.833,1010.5 691.5,1010.5C 691.918,1009.78 692.584,1009.28 693.5,1009C 692.44,1005.12 691.774,1000.78 691.5,996C 691.55,992.397 692.217,989.064 693.5,986C 692.273,984.413 692.606,983.079 694.5,982C 693.258,978.643 692.424,978.81 692,982.5C 691.833,977.167 691.667,971.833 691.5,966.5C 691.526,960.754 692.193,955.254 693.5,950C 692.224,947.276 691.558,944.276 691.5,941C 692.087,936.015 692.087,931.182 691.5,926.5 Z"/></g>
<g><path style="opacity:1" fill="#566594" d="M 832.5,990.5 C 832.5,1014.5 832.5,1038.5 832.5,1062.5C 854.167,1062.5 875.833,1062.5 897.5,1062.5C 897.5,1072.17 897.5,1081.83 897.5,1091.5C 876.167,1091.5 854.833,1091.5 833.5,1091.5C 833.5,1115.5 833.5,1139.5 833.5,1163.5C 822.5,1163.5 811.5,1163.5 800.5,1163.5C 800.831,1139.33 800.498,1115.33 799.5,1091.5C 778.167,1091.5 756.833,1091.5 735.5,1091.5C 735.5,1081.83 735.5,1072.17 735.5,1062.5C 757.167,1062.5 778.833,1062.5 800.5,1062.5C 800.5,1038.5 800.5,1014.5 800.5,990.5C 811.167,989.167 821.833,989.167 832.5,990.5 Z"/></g>
<g><path style="opacity:1" fill="#4d93a4" d="M 271.5,1063.5 C 271.666,1070.84 271.5,1078.17 271,1085.5C 263.401,1086.15 255.901,1086.82 248.5,1087.5C 238.985,1087.17 229.652,1087.51 220.5,1088.5C 216.03,1089.49 211.363,1089.82 206.5,1089.5C 206.5,1112.5 206.5,1135.5 206.5,1158.5C 198.167,1158.5 189.833,1158.5 181.5,1158.5C 181.5,1135.5 181.5,1112.5 181.5,1089.5C 160.167,1089.5 138.833,1089.5 117.5,1089.5C 117.5,1080.83 117.5,1072.17 117.5,1063.5C 138.833,1063.5 160.167,1063.5 181.5,1063.5C 181.5,1040.17 181.5,1016.83 181.5,993.5C 189.833,993.5 198.167,993.5 206.5,993.5C 206.5,1016.83 206.5,1040.17 206.5,1063.5C 228.167,1063.5 249.833,1063.5 271.5,1063.5 Z"/></g>
<g><path style="opacity:1" fill="#dde6ed" d="M 1791.5,1005.5 C 1791.56,1004.96 1791.89,1004.62 1792.5,1004.5C 1793.83,1066.33 1793.83,1128 1792.5,1189.5C 1792.83,1128 1792.5,1066.66 1791.5,1005.5 Z"/></g>
<g><path style="opacity:1" fill="#044381" d="M 1760.5,1005.5 C 1764.83,1005.5 1769.17,1005.5 1773.5,1005.5C 1779.08,1004.65 1785.08,1004.65 1791.5,1005.5C 1792.5,1066.66 1792.83,1128 1792.5,1189.5C 1791.6,1203.33 1790.93,1217.33 1790.5,1231.5C 1788.45,1231.4 1786.78,1232.07 1785.5,1233.5C 1778.47,1236.26 1771.13,1238.43 1763.5,1240C 1727.5,1247.08 1691.5,1247.25 1655.5,1240.5C 1653.21,1238.73 1650.54,1237.73 1647.5,1237.5C 1641.86,1235.68 1636.53,1233.34 1631.5,1230.5C 1630.71,1228.9 1629.38,1228.23 1627.5,1228.5C 1624.04,1225.93 1620.37,1223.6 1616.5,1221.5C 1614.39,1219.27 1612.06,1217.27 1609.5,1215.5C 1604.79,1211.79 1600.79,1207.46 1597.5,1202.5C 1595.52,1198.21 1592.85,1194.54 1589.5,1191.5C 1584.53,1183.54 1581.19,1174.87 1579.5,1165.5C 1578.4,1159 1577.07,1152.66 1575.5,1146.5C 1574.7,1126 1576.03,1105.67 1579.5,1085.5C 1581.1,1078.32 1583.77,1071.65 1587.5,1065.5C 1588.43,1064.43 1588.77,1063.1 1588.5,1061.5C 1589.17,1060.5 1589.83,1059.5 1590.5,1058.5C 1592.97,1056.23 1594.97,1053.56 1596.5,1050.5C 1599.72,1044.61 1604.05,1039.61 1609.5,1035.5C 1611.17,1034.5 1612.5,1033.17 1613.5,1031.5C 1617.45,1027.19 1622.12,1023.85 1627.5,1021.5C 1630.33,1020.92 1632.66,1019.59 1634.5,1017.5C 1642.41,1012.72 1651.08,1010.06 1660.5,1009.5C 1666.36,1009.28 1672.03,1008.62 1677.5,1007.5C 1695.35,1005.74 1712.68,1008.08 1729.5,1014.5C 1731.18,1016.01 1733.18,1017.01 1735.5,1017.5C 1737.55,1017.4 1739.22,1018.07 1740.5,1019.5C 1741.17,1020.27 1742.01,1020.93 1743,1021.5C 1743.5,1016.18 1743.67,1010.84 1743.5,1005.5C 1749.49,1004.7 1755.16,1004.7 1760.5,1005.5 Z M 1720.5,1057.5 C 1722.18,1059.01 1724.18,1060.01 1726.5,1060.5C 1731.48,1063.66 1736.82,1066.33 1742.5,1068.5C 1742.01,1098.5 1741.68,1128.5 1741.5,1158.5C 1740.61,1170 1739.94,1181.67 1739.5,1193.5C 1737.31,1194.87 1734.98,1195.87 1732.5,1196.5C 1727.95,1196.62 1723.62,1197.29 1719.5,1198.5C 1708.83,1198.5 1698.17,1198.5 1687.5,1198.5C 1683.34,1197.55 1679.01,1196.88 1674.5,1196.5C 1669.01,1194.76 1663.67,1192.43 1658.5,1189.5C 1656.39,1187.27 1654.06,1185.27 1651.5,1183.5C 1646.89,1180.89 1643.22,1177.22 1640.5,1172.5C 1639,1168.83 1637,1165.49 1634.5,1162.5C 1633.87,1159.6 1632.87,1156.94 1631.5,1154.5C 1630.87,1150.3 1629.87,1146.3 1628.5,1142.5C 1627.98,1134.78 1627.98,1127.11 1628.5,1119.5C 1628.72,1112.71 1629.72,1106.05 1631.5,1099.5C 1633.2,1096.06 1634.54,1092.39 1635.5,1088.5C 1637.94,1085.95 1639.61,1082.95 1640.5,1079.5C 1644.55,1074.47 1649.55,1069.81 1655.5,1065.5C 1657.19,1065.14 1658.19,1064.14 1658.5,1062.5C 1669.28,1057.46 1680.62,1054.46 1692.5,1053.5C 1701.96,1054.06 1711.29,1055.39 1720.5,1057.5 Z"/></g>
<g><path style="opacity:1" fill="#9fb6cc" d="M 1760.5,1005.5 C 1764.83,1004.17 1769.17,1004.17 1773.5,1005.5C 1769.17,1005.5 1764.83,1005.5 1760.5,1005.5 Z"/></g>
<g><path style="opacity:1" fill="#074382" d="M 3278.5,1005.5 C 3282.65,1005.74 3286.99,1005.74 3291.5,1005.5C 3300.71,1004.41 3309.71,1004.41 3318.5,1005.5C 3319.5,1005.5 3320.5,1005.5 3321.5,1005.5C 3321.5,1059.83 3321.5,1114.17 3321.5,1168.5C 3321.83,1182.68 3321.5,1196.68 3320.5,1210.5C 3320.09,1217.92 3319.09,1225.26 3317.5,1232.5C 3315.49,1233.92 3313.15,1234.59 3310.5,1234.5C 3307.15,1234.75 3304.15,1235.75 3301.5,1237.5C 3272.88,1244.71 3243.88,1247.04 3214.5,1244.5C 3209.01,1243.57 3203.34,1242.9 3197.5,1242.5C 3189.09,1241.69 3181.09,1239.69 3173.5,1236.5C 3170.91,1234.38 3167.91,1233.04 3164.5,1232.5C 3142.22,1222.56 3125.89,1206.56 3115.5,1184.5C 3114.6,1180.38 3112.93,1176.71 3110.5,1173.5C 3108.72,1170.5 3107.72,1167.16 3107.5,1163.5C 3107.17,1160.83 3106.83,1158.17 3106.5,1155.5C 3104.86,1152.15 3104.03,1148.48 3104,1144.5C 3103.83,1137.83 3103.67,1131.17 3103.5,1124.5C 3103.54,1117.26 3104.2,1110.26 3105.5,1103.5C 3105.33,1101.38 3105.66,1099.38 3106.5,1097.5C 3106.5,1097.17 3106.5,1096.83 3106.5,1096.5C 3107.17,1093.17 3107.83,1089.83 3108.5,1086.5C 3108.41,1083.85 3109.08,1081.51 3110.5,1079.5C 3112.4,1076.48 3113.73,1073.15 3114.5,1069.5C 3117.57,1061.01 3121.9,1053.35 3127.5,1046.5C 3131.56,1044.77 3134.23,1041.77 3135.5,1037.5C 3143.59,1028.62 3153.26,1021.95 3164.5,1017.5C 3166.82,1017.01 3168.82,1016.01 3170.5,1014.5C 3176.79,1011.76 3183.45,1009.93 3190.5,1009C 3202.3,1007.28 3213.96,1006.78 3225.5,1007.5C 3230.31,1008.59 3235.31,1009.26 3240.5,1009.5C 3249.56,1010.19 3257.89,1012.85 3265.5,1017.5C 3266.87,1019.14 3268.7,1020.14 3271,1020.5C 3271.76,1020.43 3272.26,1020.1 3272.5,1019.5C 3272.33,1014.82 3272.5,1010.15 3273,1005.5C 3274.64,1004.88 3276.47,1004.88 3278.5,1005.5 Z M 3231.5,1053.5 C 3241.38,1055.46 3251.04,1058.46 3260.5,1062.5C 3262.34,1064.59 3264.67,1065.92 3267.5,1066.5C 3267.84,1067.34 3268.51,1067.67 3269.5,1067.5C 3270.81,1079.28 3271.48,1091.28 3271.5,1103.5C 3271.03,1129.83 3270.7,1156.17 3270.5,1182.5C 3269.78,1186.4 3269.11,1190.4 3268.5,1194.5C 3264.33,1195.26 3260.33,1196.26 3256.5,1197.5C 3240.49,1198.77 3224.49,1198.77 3208.5,1197.5C 3205.38,1196.13 3202.05,1195.13 3198.5,1194.5C 3196.15,1192.66 3193.48,1191.33 3190.5,1190.5C 3176.22,1181.6 3166.22,1169.6 3160.5,1154.5C 3161.04,1154.44 3161.38,1154.11 3161.5,1153.5C 3160.49,1150.05 3159.49,1146.71 3158.5,1143.5C 3157.21,1132.5 3157.21,1121.5 3158.5,1110.5C 3159.49,1107.29 3160.49,1103.95 3161.5,1100.5C 3161.38,1099.89 3161.04,1099.56 3160.5,1099.5C 3160.5,1099.17 3160.5,1098.83 3160.5,1098.5C 3162.42,1098.29 3162.76,1097.62 3161.5,1096.5C 3167.23,1081.45 3176.9,1069.78 3190.5,1061.5C 3192.97,1061.25 3194.97,1060.25 3196.5,1058.5C 3199.67,1057.73 3202.67,1056.73 3205.5,1055.5C 3214.1,1054.08 3222.77,1053.41 3231.5,1053.5 Z"/></g>
<g><path style="opacity:1" fill="#a7bad0" d="M 3278.5,1005.5 C 3282.83,1004.17 3287.17,1004.17 3291.5,1005.5C 3286.99,1005.74 3282.65,1005.74 3278.5,1005.5 Z"/></g>
<g><path style="opacity:1" fill="#c0cedd" d="M 1743.5,1005.5 C 1743.67,1010.84 1743.5,1016.18 1743,1021.5C 1742.01,1020.93 1741.17,1020.27 1740.5,1019.5C 1742.14,1015.09 1743.14,1010.42 1743.5,1005.5 Z"/></g>
<g><path style="opacity:1" fill="#7997b9" d="M 3318.5,1005.5 C 3319.57,1004.57 3320.9,1004.23 3322.5,1004.5C 3322.83,1059.34 3322.5,1114 3321.5,1168.5C 3321.5,1114.17 3321.5,1059.83 3321.5,1005.5C 3320.5,1005.5 3319.5,1005.5 3318.5,1005.5 Z"/></g>
<g><path style="opacity:1" fill="#3e749d" d="M 1677.5,1007.5 C 1672.03,1008.62 1666.36,1009.28 1660.5,1009.5C 1665.92,1007.88 1671.58,1007.22 1677.5,1007.5 Z"/></g>
<g><path style="opacity:1" fill="#3b739c" d="M 2136.5,1007.5 C 2129.68,1008.57 2122.68,1009.23 2115.5,1009.5C 2122.26,1007.85 2129.26,1007.18 2136.5,1007.5 Z"/></g>
<g><path style="opacity:1" fill="#3c739c" d="M 2824.5,1009.5 C 2810.16,1008.19 2795.83,1008.19 2781.5,1009.5C 2788.26,1007.97 2795.26,1007.3 2802.5,1007.5C 2810.06,1007.32 2817.4,1007.99 2824.5,1009.5 Z"/></g>
<g><path style="opacity:1" fill="#42779e" d="M 3225.5,1007.5 C 3230.77,1007.19 3235.77,1007.86 3240.5,1009.5C 3235.31,1009.26 3230.31,1008.59 3225.5,1007.5 Z"/></g>
<g><path style="opacity:1" fill="#054381" d="M 2824.5,1009.5 C 2832.3,1009.66 2839.63,1011.32 2846.5,1014.5C 2848.85,1016.34 2851.52,1017.67 2854.5,1018.5C 2870.55,1024.89 2882.89,1035.55 2891.5,1050.5C 2891.93,1051.71 2892.6,1052.71 2893.5,1053.5C 2893.93,1054.71 2894.6,1055.71 2895.5,1056.5C 2897.69,1059.55 2899.36,1062.88 2900.5,1066.5C 2901.93,1072.13 2903.93,1077.46 2906.5,1082.5C 2907.4,1083.21 2907.74,1084.21 2907.5,1085.5C 2908.14,1090.7 2909.14,1095.7 2910.5,1100.5C 2910.65,1106.7 2911.32,1112.7 2912.5,1118.5C 2912.31,1124.21 2912.65,1129.88 2913.5,1135.5C 2856.33,1135.17 2799.33,1135.5 2742.5,1136.5C 2744.12,1144.94 2746.45,1153.6 2749.5,1162.5C 2749.49,1164.31 2749.99,1165.98 2751,1167.5C 2752.37,1170.27 2754.2,1172.6 2756.5,1174.5C 2760.87,1179.87 2765.87,1184.54 2771.5,1188.5C 2771.37,1189.38 2771.7,1190.04 2772.5,1190.5C 2774.66,1192.02 2777,1193.02 2779.5,1193.5C 2792.28,1198.71 2805.61,1201.05 2819.5,1200.5C 2839.65,1200.52 2859.32,1197.52 2878.5,1191.5C 2882.3,1191.13 2885.63,1189.79 2888.5,1187.5C 2890.18,1185.99 2892.18,1184.99 2894.5,1184.5C 2895.83,1184.5 2897.17,1184.5 2898.5,1184.5C 2899.69,1199.89 2899.69,1215.23 2898.5,1230.5C 2896.82,1232.01 2894.82,1233.01 2892.5,1233.5C 2889.09,1234.07 2886.09,1235.41 2883.5,1237.5C 2870.62,1242.01 2857.29,1245.01 2843.5,1246.5C 2831.85,1247.27 2820.18,1247.6 2808.5,1247.5C 2789.75,1246.31 2771.75,1242.31 2754.5,1235.5C 2752.66,1233.41 2750.33,1232.08 2747.5,1231.5C 2742.01,1228.92 2737.01,1225.59 2732.5,1221.5C 2731.83,1220.17 2730.83,1219.17 2729.5,1218.5C 2723.19,1214.19 2717.85,1208.85 2713.5,1202.5C 2713.26,1200.6 2712.26,1199.26 2710.5,1198.5C 2710.07,1197.29 2709.4,1196.29 2708.5,1195.5C 2706.62,1195.61 2706.29,1195.11 2707.5,1194C 2705.37,1191.61 2703.71,1188.44 2702.5,1184.5C 2701.01,1179.53 2699.01,1174.87 2696.5,1170.5C 2695.6,1169.79 2695.26,1168.79 2695.5,1167.5C 2694.77,1161.91 2693.43,1156.57 2691.5,1151.5C 2690.17,1136.17 2690.17,1120.83 2691.5,1105.5C 2691.21,1103.26 2691.54,1101.26 2692.5,1099.5C 2694.1,1095.76 2695.1,1091.76 2695.5,1087.5C 2695.98,1084.56 2696.98,1081.89 2698.5,1079.5C 2700.58,1077.32 2701.58,1074.65 2701.5,1071.5C 2703.7,1067.1 2705.7,1063.1 2707.5,1059.5C 2708.97,1058.56 2709.97,1057.23 2710.5,1055.5C 2711.89,1054.1 2712.89,1052.43 2713.5,1050.5C 2722.43,1037.9 2733.76,1028.23 2747.5,1021.5C 2750.54,1020.32 2753.21,1018.65 2755.5,1016.5C 2763.6,1012.47 2772.26,1010.14 2781.5,1009.5C 2795.83,1008.19 2810.16,1008.19 2824.5,1009.5 Z M 2818.5,1054.5 C 2822.29,1055.95 2826.29,1057.12 2830.5,1058C 2835,1060.36 2839.33,1062.86 2843.5,1065.5C 2843.55,1067.63 2844.55,1068.97 2846.5,1069.5C 2853.05,1077.98 2856.71,1087.64 2857.5,1098.5C 2820.82,1098.79 2784.15,1098.45 2747.5,1097.5C 2748.5,1094.83 2749.5,1092.17 2750.5,1089.5C 2751.97,1088.56 2752.97,1087.23 2753.5,1085.5C 2754.4,1084.71 2755.07,1083.71 2755.5,1082.5C 2756.4,1081.71 2757.07,1080.71 2757.5,1079.5C 2759.46,1076.46 2761.79,1073.63 2764.5,1071C 2767.62,1069.69 2770.29,1067.86 2772.5,1065.5C 2773.71,1065.07 2774.71,1064.4 2775.5,1063.5C 2777.23,1062.97 2778.56,1061.97 2779.5,1060.5C 2783.74,1059.2 2787.74,1057.54 2791.5,1055.5C 2800.47,1054.65 2809.47,1054.32 2818.5,1054.5 Z"/></g>
<g><path style="opacity:1" fill="#ffdcc0" d="M 324.5,905.5 C 324.5,940.5 324.5,975.5 324.5,1010.5C 312.322,1010.83 300.322,1010.5 288.5,1009.5C 300.167,1009.5 311.833,1009.5 323.5,1009.5C 323.168,974.663 323.502,939.996 324.5,905.5 Z"/></g>
<g><path style="opacity:1" fill="#6c8eb2" d="M 3514.5,1011.5 C 3514.54,1051.6 3514.54,1091.6 3514.5,1131.5C 3513.2,1091.63 3513.2,1051.63 3514.5,1011.5 Z"/></g>
<g><path style="opacity:1" fill="#054382" d="M 3514.5,1011.5 C 3531.5,1011.5 3548.5,1011.5 3565.5,1011.5C 3565.5,1061.5 3565.5,1111.5 3565.5,1161.5C 3565.16,1166.12 3565.82,1170.46 3567.5,1174.5C 3569.02,1176.89 3570.02,1179.56 3570.5,1182.5C 3571.77,1185.76 3573.44,1188.76 3575.5,1191.5C 3579.14,1194.32 3582.8,1197.16 3586.5,1200C 3592.24,1201.97 3597.9,1203.8 3603.5,1205.5C 3612.49,1208.13 3621.49,1208.13 3630.5,1205.5C 3636.44,1203.46 3642.44,1201.3 3648.5,1199C 3652,1196.33 3655.33,1193.5 3658.5,1190.5C 3660.92,1187.99 3662.59,1184.99 3663.5,1181.5C 3663.59,1179.21 3664.26,1177.21 3665.5,1175.5C 3666.98,1171.74 3667.98,1167.74 3668.5,1163.5C 3668.38,1162.89 3668.04,1162.56 3667.5,1162.5C 3667.5,1151.5 3667.5,1140.5 3667.5,1129.5C 3668.31,1127.37 3668.81,1125.04 3669,1122.5C 3669.5,1085.5 3669.67,1048.5 3669.5,1011.5C 3686.17,1011.5 3702.83,1011.5 3719.5,1011.5C 3719.5,1060.17 3719.5,1108.83 3719.5,1157.5C 3717.54,1164.09 3716.87,1171.09 3717.5,1178.5C 3717.5,1178.83 3717.5,1179.17 3717.5,1179.5C 3715.85,1190.78 3711.52,1200.78 3704.5,1209.5C 3702.95,1209.82 3702.29,1210.82 3702.5,1212.5C 3694.11,1222.53 3683.77,1229.87 3671.5,1234.5C 3667.86,1235.26 3664.53,1236.6 3661.5,1238.5C 3654.42,1240.55 3647.09,1242.05 3639.5,1243C 3622.44,1245.03 3605.11,1244.7 3587.5,1242C 3580.85,1241.28 3574.52,1239.78 3568.5,1237.5C 3567.71,1235.9 3566.38,1235.23 3564.5,1235.5C 3552.91,1231.56 3542.91,1225.23 3534.5,1216.5C 3534.23,1213.27 3532.56,1211.27 3529.5,1210.5C 3523.46,1202.43 3518.96,1193.43 3516,1183.5C 3514.66,1166.2 3514.16,1148.86 3514.5,1131.5C 3514.54,1091.6 3514.54,1051.6 3514.5,1011.5 Z"/></g>
<g><path style="opacity:1" fill="#38779b" d="M 3669.5,1011.5 C 3669.67,1048.5 3669.5,1085.5 3669,1122.5C 3668.81,1125.04 3668.31,1127.37 3667.5,1129.5C 3668.05,1090.35 3668.72,1051.01 3669.5,1011.5 Z"/></g>
<g><path style="opacity:1" fill="#cdd8e4" d="M 3170.5,1014.5 C 3168.82,1016.01 3166.82,1017.01 3164.5,1017.5C 3165.91,1015.46 3167.91,1014.46 3170.5,1014.5 Z"/></g>
<g><path style="opacity:1" fill="#cfdae6" d="M 1729.5,1014.5 C 1732.09,1014.46 1734.09,1015.46 1735.5,1017.5C 1733.18,1017.01 1731.18,1016.01 1729.5,1014.5 Z"/></g>
<g><path style="opacity:1" fill="#c7d3e1" d="M 2183.5,1014.5 C 2185.97,1014.75 2187.97,1015.75 2189.5,1017.5C 2187.03,1017.25 2185.03,1016.25 2183.5,1014.5 Z"/></g>
<g><path style="opacity:1" fill="#c4d0df" d="M 2846.5,1014.5 C 2849.75,1014.79 2852.42,1016.13 2854.5,1018.5C 2851.52,1017.67 2848.85,1016.34 2846.5,1014.5 Z"/></g>
<g><path style="opacity:1" fill="#a0b8cd" d="M 1634.5,1017.5 C 1632.66,1019.59 1630.33,1020.92 1627.5,1021.5C 1629.34,1019.41 1631.67,1018.08 1634.5,1017.5 Z"/></g>
<g><path style="opacity:1" fill="#abbfd2" d="M 2755.5,1016.5 C 2753.21,1018.65 2750.54,1020.32 2747.5,1021.5C 2749.42,1018.86 2752.08,1017.2 2755.5,1016.5 Z"/></g>
<g><path style="opacity:1" fill="#a7c0d1" d="M 3265.5,1017.5 C 3267.83,1018.17 3270.17,1018.83 3272.5,1019.5C 3272.26,1020.1 3271.76,1020.43 3271,1020.5C 3268.7,1020.14 3266.87,1019.14 3265.5,1017.5 Z"/></g>
<g><path style="opacity:1" fill="#b5c5d7" d="M 1613.5,1031.5 C 1612.5,1033.17 1611.17,1034.5 1609.5,1035.5C 1609.83,1033.17 1611.17,1031.83 1613.5,1031.5 Z"/></g>
<g><path style="opacity:1" fill="#98b1ca" d="M 2222.5,1041.5 C 2223.91,1041.97 2224.57,1042.97 2224.5,1044.5C 2223.09,1044.03 2222.43,1043.03 2222.5,1041.5 Z"/></g>
<g><path style="opacity:1" fill="#708fb4" d="M 3135.5,1037.5 C 3134.23,1041.77 3131.56,1044.77 3127.5,1046.5C 3130.2,1043.47 3132.86,1040.47 3135.5,1037.5 Z"/></g>
<g><path style="opacity:1" fill="#dbe5eb" d="M 1213.5,911.5 C 1213.5,958.167 1213.5,1004.83 1213.5,1051.5C 1169.17,1051.5 1124.83,1051.5 1080.5,1051.5C 1080.17,1051.5 1079.83,1051.5 1079.5,1051.5C 1123.66,1050.5 1168,1050.17 1212.5,1050.5C 1212.17,1004 1212.5,957.664 1213.5,911.5 Z"/></g>
<g><path style="opacity:1" fill="#f6f7f8" d="M 1262.5,911.5 C 1263.5,957.664 1263.83,1004 1263.5,1050.5C 1307.67,1050.17 1351.67,1050.5 1395.5,1051.5C 1351.17,1051.5 1306.83,1051.5 1262.5,1051.5C 1262.5,1004.83 1262.5,958.167 1262.5,911.5 Z"/></g>
<g><path style="opacity:1" fill="#dde5ec" d="M 2891.5,1050.5 C 2893.05,1050.82 2893.71,1051.82 2893.5,1053.5C 2892.6,1052.71 2891.93,1051.71 2891.5,1050.5 Z"/></g>
<g><path style="opacity:1" fill="#b5c7d8" d="M 2713.5,1050.5 C 2712.89,1052.43 2711.89,1054.1 2710.5,1055.5C 2710.27,1053.07 2711.27,1051.4 2713.5,1050.5 Z"/></g>
<g><path style="opacity:1" fill="#adbfd3" d="M 1596.5,1050.5 C 1594.97,1053.56 1592.97,1056.23 1590.5,1058.5C 1591.55,1055.04 1593.55,1052.37 1596.5,1050.5 Z"/></g>
<g><path style="opacity:1" fill="#346797" d="M 3231.5,1053.5 C 3222.77,1053.41 3214.1,1054.08 3205.5,1055.5C 3214.03,1052.67 3222.69,1052 3231.5,1053.5 Z"/></g>
<g><path style="opacity:1" fill="#4973a1" d="M 2818.5,1054.5 C 2809.47,1054.32 2800.47,1054.65 2791.5,1055.5C 2796.4,1053.95 2801.57,1053.28 2807,1053.5C 2811.02,1053.5 2814.85,1053.83 2818.5,1054.5 Z"/></g>
<g><path style="opacity:1" fill="#e0e7ed" d="M 2893.5,1053.5 C 2894.38,1053.37 2895.04,1053.7 2895.5,1054.5C 2896.55,1055.43 2896.55,1056.1 2895.5,1056.5C 2894.6,1055.71 2893.93,1054.71 2893.5,1053.5 Z"/></g>
<g><path style="opacity:1" fill="#fddcd2" d="M 384.5,1054.5 C 386.259,1054.05 388.259,1054.05 390.5,1054.5C 388.611,1055.74 386.611,1055.74 384.5,1054.5 Z"/></g>
<g><path style="opacity:1" fill="#fddcd2" d="M 397.5,1054.5 C 395.389,1055.74 393.389,1055.74 391.5,1054.5C 393.741,1054.05 395.741,1054.05 397.5,1054.5 Z"/></g>
<g><path style="opacity:1" fill="#ffcbb3" d="M 407.5,1054.5 C 404.167,1055.83 400.833,1055.83 397.5,1054.5C 400.833,1053.17 404.167,1053.17 407.5,1054.5 Z"/></g>
<g><path style="opacity:1" fill="#fcc3bd" d="M 424.5,1054.5 C 421.167,1055.83 417.833,1055.83 414.5,1054.5C 417.833,1053.17 421.167,1053.17 424.5,1054.5 Z"/></g>
<g><path style="opacity:1" fill="#fdd9cd" d="M 437.5,1054.5 C 435.389,1055.74 433.389,1055.74 431.5,1054.5C 433.741,1054.05 435.741,1054.05 437.5,1054.5 Z"/></g>
<g><path style="opacity:1" fill="#fddcd2" d="M 441.5,1054.5 C 443.259,1054.05 445.259,1054.05 447.5,1054.5C 445.611,1055.74 443.611,1055.74 441.5,1054.5 Z"/></g>
<g><path style="opacity:1" fill="#fddcd2" d="M 454.5,1054.5 C 452.389,1055.74 450.389,1055.74 448.5,1054.5C 450.741,1054.05 452.741,1054.05 454.5,1054.5 Z"/></g>
<g><path style="opacity:1" fill="#ffcbb3" d="M 464.5,1054.5 C 461.167,1055.83 457.833,1055.83 454.5,1054.5C 457.833,1053.17 461.167,1053.17 464.5,1054.5 Z"/></g>
<g><path style="opacity:1" fill="#fedece" d="M 471.5,1054.5 C 469.389,1055.74 467.389,1055.74 465.5,1054.5C 467.741,1054.05 469.741,1054.05 471.5,1054.5 Z"/></g>
<g><path style="opacity:1" fill="#fcc3bd" d="M 480.5,1054.5 C 477.5,1055.83 474.5,1055.83 471.5,1054.5C 474.542,1053.46 477.542,1053.46 480.5,1054.5 Z"/></g>
<g><path style="opacity:1" fill="#fee1cd" d="M 480.5,1054.5 C 481.348,1053.38 482.348,1053.38 483.5,1054.5C 482.652,1055.62 481.652,1055.62 480.5,1054.5 Z"/></g>
<g><path style="opacity:1" fill="#fedece" d="M 547.5,1054.5 C 545.389,1055.74 543.389,1055.74 541.5,1054.5C 543.741,1054.05 545.741,1054.05 547.5,1054.5 Z"/></g>
<g><path style="opacity:1" fill="#ffcbb2" d="M 557.5,1054.5 C 554.167,1055.83 550.833,1055.83 547.5,1054.5C 550.833,1053.17 554.167,1053.17 557.5,1054.5 Z"/></g>
<g><path style="opacity:1" fill="#fdd9cd" d="M 570.5,1054.5 C 568.389,1055.74 566.389,1055.74 564.5,1054.5C 566.741,1054.05 568.741,1054.05 570.5,1054.5 Z"/></g>
<g><path style="opacity:1" fill="#fddcd2" d="M 574.5,1054.5 C 576.259,1054.05 578.259,1054.05 580.5,1054.5C 578.611,1055.74 576.611,1055.74 574.5,1054.5 Z"/></g>
<g><path style="opacity:1" fill="#fddcd2" d="M 587.5,1054.5 C 585.389,1055.74 583.389,1055.74 581.5,1054.5C 583.741,1054.05 585.741,1054.05 587.5,1054.5 Z"/></g>
<g><path style="opacity:1" fill="#ffcbb3" d="M 597.5,1054.5 C 594.167,1055.83 590.833,1055.83 587.5,1054.5C 590.833,1053.17 594.167,1053.17 597.5,1054.5 Z"/></g>
<g><path style="opacity:1" fill="#fed0c0" d="M 614.5,1054.5 C 609.167,1055.83 603.833,1055.83 598.5,1054.5C 603.833,1054.5 609.167,1054.5 614.5,1054.5 Z"/></g>
<g><path style="opacity:1" fill="#fdd9cd" d="M 627.5,1054.5 C 625.389,1055.74 623.389,1055.74 621.5,1054.5C 623.741,1054.05 625.741,1054.05 627.5,1054.5 Z"/></g>
<g><path style="opacity:1" fill="#5e89aa" d="M 2114.5,1054.5 C 2112.4,1055.61 2110.07,1056.28 2107.5,1056.5C 2109.44,1054.84 2111.77,1054.17 2114.5,1054.5 Z"/></g>
<g><path style="opacity:1" fill="#ffc795" d="M 384.5,1054.5 C 383.432,1055.43 382.099,1055.77 380.5,1055.5C 380.5,1069.17 380.5,1082.83 380.5,1096.5C 380.167,1096.5 379.833,1096.5 379.5,1096.5C 379.5,1082.5 379.5,1068.5 379.5,1054.5C 381.167,1054.5 382.833,1054.5 384.5,1054.5 Z"/></g>
<g><path style="opacity:1" fill="#cfdae5" d="M 2710.5,1055.5 C 2709.97,1057.23 2708.97,1058.56 2707.5,1059.5C 2707.55,1057.37 2708.55,1056.03 2710.5,1055.5 Z"/></g>
<g><path style="opacity:1" fill="#8ea9c3" d="M 1720.5,1057.5 C 1723.09,1057.46 1725.09,1058.46 1726.5,1060.5C 1724.18,1060.01 1722.18,1059.01 1720.5,1057.5 Z"/></g>
<g><path style="opacity:1" fill="#8daac2" d="M 2157.5,1058.5 C 2160.75,1058.79 2163.42,1060.13 2165.5,1062.5C 2162.52,1061.67 2159.85,1060.34 2157.5,1058.5 Z"/></g>
<g><path style="opacity:1" fill="#90abc4" d="M 3196.5,1058.5 C 3194.97,1060.25 3192.97,1061.25 3190.5,1061.5C 3192.03,1059.75 3194.03,1058.75 3196.5,1058.5 Z"/></g>
<g><path style="opacity:1" fill="#98b1c9" d="M 2097.5,1059.5 C 2095.21,1061.27 2092.54,1062.27 2089.5,1062.5C 2091.79,1060.73 2094.46,1059.73 2097.5,1059.5 Z"/></g>
<g><path style="opacity:1" fill="#f7f5f6" d="M 631.5,1054.5 C 633.259,1054.05 635.259,1054.05 637.5,1054.5C 637.829,1069.01 637.496,1083.34 636.5,1097.5C 636.5,1083.5 636.5,1069.5 636.5,1055.5C 634.708,1055.63 633.042,1055.3 631.5,1054.5 Z"/></g>
<g><path style="opacity:1" fill="#9eb5cc" d="M 800.5,990.5 C 800.5,1014.5 800.5,1038.5 800.5,1062.5C 778.833,1062.5 757.167,1062.5 735.5,1062.5C 735.5,1072.17 735.5,1081.83 735.5,1091.5C 734.506,1081.68 734.173,1071.68 734.5,1061.5C 756.167,1061.5 777.833,1061.5 799.5,1061.5C 799.169,1037.66 799.502,1013.99 800.5,990.5 Z"/></g>
<g><path style="opacity:1" fill="#92abc6" d="M 832.5,990.5 C 833.498,1013.99 833.831,1037.66 833.5,1061.5C 855.167,1061.5 876.833,1061.5 898.5,1061.5C 898.827,1071.68 898.494,1081.68 897.5,1091.5C 897.5,1081.83 897.5,1072.17 897.5,1062.5C 875.833,1062.5 854.167,1062.5 832.5,1062.5C 832.5,1038.5 832.5,1014.5 832.5,990.5 Z"/></g>
<g><path style="opacity:1" fill="#a4b8cf" d="M 2779.5,1060.5 C 2778.56,1061.97 2777.23,1062.97 2775.5,1063.5C 2776.03,1061.55 2777.37,1060.55 2779.5,1060.5 Z"/></g>
<g><path style="opacity:1" fill="#c9d4e1" d="M 1658.5,1062.5 C 1658.19,1064.14 1657.19,1065.14 1655.5,1065.5C 1655.81,1063.86 1656.81,1062.86 1658.5,1062.5 Z"/></g>
<g><path style="opacity:1" fill="#becfdb" d="M 2775.5,1063.5 C 2774.71,1064.4 2773.71,1065.07 2772.5,1065.5C 2772.82,1063.95 2773.82,1063.29 2775.5,1063.5 Z"/></g>
<g><path style="opacity:1" fill="#b2c3d5" d="M 3260.5,1062.5 C 3263.33,1063.08 3265.66,1064.41 3267.5,1066.5C 3264.67,1065.92 3262.34,1064.59 3260.5,1062.5 Z"/></g>
<g><path style="opacity:1" fill="#a4b9ce" d="M 1588.5,1061.5 C 1588.77,1063.1 1588.43,1064.43 1587.5,1065.5C 1587.06,1065.57 1586.73,1065.4 1586.5,1065C 1587.08,1063.7 1587.75,1062.53 1588.5,1061.5 Z"/></g>
<g><path style="opacity:1" fill="#2d6195" d="M 2086.5,1063.5 C 2085.79,1064.4 2084.79,1064.74 2083.5,1064.5C 2083.17,1107.24 2083.51,1149.91 2084.5,1192.5C 2082.51,1149.85 2081.84,1106.85 2082.5,1063.5C 2083.83,1063.5 2085.17,1063.5 2086.5,1063.5 Z"/></g>
<g><path style="opacity:1" fill="#c2cedd" d="M 2843.5,1065.5 C 2844.97,1066.44 2845.97,1067.77 2846.5,1069.5C 2844.55,1068.97 2843.55,1067.63 2843.5,1065.5 Z"/></g>
<g><path style="opacity:1" fill="#98afc8" d="M 2238.5,1067.5 C 2241.84,1071.49 2243.84,1076.16 2244.5,1081.5C 2242.32,1076.99 2240.32,1072.33 2238.5,1067.5 Z"/></g>
<g><path style="opacity:1" fill="#5e8aab" d="M 2701.5,1071.5 C 2701.58,1074.65 2700.58,1077.32 2698.5,1079.5C 2698.98,1076.56 2699.98,1073.89 2701.5,1071.5 Z"/></g>
<g><path style="opacity:1" fill="#7e9ebb" d="M 2900.5,1066.5 C 2903.46,1071.38 2905.46,1076.72 2906.5,1082.5C 2903.93,1077.46 2901.93,1072.13 2900.5,1066.5 Z"/></g>
<g><path style="opacity:1" fill="#a2b8ce" d="M 3114.5,1069.5 C 3113.73,1073.15 3112.4,1076.48 3110.5,1079.5C 3110.88,1075.67 3112.21,1072.34 3114.5,1069.5 Z"/></g>
<g><path style="opacity:1" fill="#a8bad1" d="M 2179.5,1073.5 C 2181.05,1073.82 2181.71,1074.82 2181.5,1076.5C 2180.6,1075.71 2179.93,1074.71 2179.5,1073.5 Z"/></g>
<g><path style="opacity:1" fill="#b5c8d8" d="M 2757.5,1079.5 C 2757.07,1080.71 2756.4,1081.71 2755.5,1082.5C 2755.29,1080.82 2755.95,1079.82 2757.5,1079.5 Z"/></g>
<g><path style="opacity:1" fill="#a8bad1" d="M 2755.5,1082.5 C 2755.07,1083.71 2754.4,1084.71 2753.5,1085.5C 2753.29,1083.82 2753.95,1082.82 2755.5,1082.5 Z"/></g>
<g><path style="opacity:1" fill="#bccddc" d="M 1640.5,1079.5 C 1639.61,1082.95 1637.94,1085.95 1635.5,1088.5C 1636.41,1085.01 1638.08,1082.01 1640.5,1079.5 Z"/></g>
<g><path style="opacity:1" fill="#6d95b3" d="M 2181.5,1076.5 C 2185.97,1080.07 2188.97,1084.74 2190.5,1090.5C 2187.51,1085.87 2184.51,1081.2 2181.5,1076.5 Z"/></g>
<g><path style="opacity:1" fill="#eef2f5" d="M 271.5,1063.5 C 272.656,1070.99 272.822,1078.66 272,1086.5C 264.253,1087.48 256.42,1087.82 248.5,1087.5C 255.901,1086.82 263.401,1086.15 271,1085.5C 271.5,1078.17 271.666,1070.84 271.5,1063.5 Z"/></g>
<g><path style="opacity:1" fill="#8daac2" d="M 2753.5,1085.5 C 2752.97,1087.23 2751.97,1088.56 2750.5,1089.5C 2750.55,1087.37 2751.55,1086.03 2753.5,1085.5 Z"/></g>
<g><path style="opacity:1" fill="#eff2f5" d="M 220.5,1088.5 C 229.652,1087.51 238.985,1087.17 248.5,1087.5C 239.765,1088.18 230.932,1088.85 222,1089.5C 221.617,1088.94 221.117,1088.61 220.5,1088.5 Z"/></g>
<g><path style="opacity:1" fill="#dae4eb" d="M 3108.5,1086.5 C 3107.83,1089.83 3107.17,1093.17 3106.5,1096.5C 3105.88,1096.08 3105.54,1095.42 3105.5,1094.5C 3105.91,1091.5 3106.91,1088.83 3108.5,1086.5 Z"/></g>
<g><path style="opacity:1" fill="#a9bfd2" d="M 2695.5,1087.5 C 2695.1,1091.76 2694.1,1095.76 2692.5,1099.5C 2692.58,1095.16 2693.58,1091.16 2695.5,1087.5 Z"/></g>
<g><path style="opacity:1" fill="#d8e1ea" d="M 2246.5,1088.5 C 2248.5,1092.83 2249.5,1097.5 2249.5,1102.5C 2248.01,1098.06 2247.01,1093.39 2246.5,1088.5 Z"/></g>
<g><path style="opacity:1" fill="#b6c7d8" d="M 2907.5,1085.5 C 2909.63,1090.15 2910.63,1095.15 2910.5,1100.5C 2909.14,1095.7 2908.14,1090.7 2907.5,1085.5 Z"/></g>
<g><path style="opacity:1" fill="#c4d3df" d="M 2490.5,1287.5 C 2473.67,1288.5 2456.67,1288.83 2439.5,1288.5C 2439.5,1142.17 2439.5,995.833 2439.5,849.5C 2456.74,849.175 2473.91,849.508 2491,850.5C 2491.83,996.334 2491.67,1142 2490.5,1287.5 Z"/></g>
<g><path style="opacity:1" fill="#004281" d="M 2490.5,1287.5 C 2473.83,1287.5 2457.17,1287.5 2440.5,1287.5C 2440.5,1141.83 2440.5,996.167 2440.5,850.5C 2456.84,850.333 2473.17,850.5 2489.5,851C 2490.11,852.231 2490.44,853.564 2490.5,855C 2490.37,998.145 2490.37,1142.31 2490.5,1287.5 Z"/></g>
<g><path style="opacity:1" fill="#dae1ea" d="M 3161.5,1096.5 C 3162.76,1097.62 3162.42,1098.29 3160.5,1098.5C 3160.83,1097.83 3161.17,1097.17 3161.5,1096.5 Z"/></g>
<g><path style="opacity:1" fill="#f5999b" d="M 379.5,1096.5 C 379.833,1096.5 380.167,1096.5 380.5,1096.5C 415.833,1097.17 451.167,1097.83 486.5,1098.5C 450.484,1099.16 414.818,1098.49 379.5,1096.5 Z"/></g>
<g><path style="opacity:1" fill="#94aec7" d="M 1079.5,1051.5 C 1079.83,1051.5 1080.17,1051.5 1080.5,1051.5C 1080.5,1066.83 1080.5,1082.17 1080.5,1097.5C 1124.83,1097.5 1169.17,1097.5 1213.5,1097.5C 1213.5,1147.5 1213.5,1197.5 1213.5,1247.5C 1213.5,1247.83 1213.5,1248.17 1213.5,1248.5C 1212.5,1198.67 1212.17,1148.67 1212.5,1098.5C 1168.17,1098.5 1123.83,1098.5 1079.5,1098.5C 1079.5,1082.83 1079.5,1067.17 1079.5,1051.5 Z"/></g>
<g><path style="opacity:1" fill="#9bb0ca" d="M 1395.5,1051.5 C 1396.5,1066.99 1396.83,1082.66 1396.5,1098.5C 1351.83,1098.5 1307.17,1098.5 1262.5,1098.5C 1306.66,1097.5 1351,1097.17 1395.5,1097.5C 1395.5,1082.17 1395.5,1066.83 1395.5,1051.5 Z"/></g>
<g><path style="opacity:1" fill="#e8ecf1" d="M 3106.5,1097.5 C 3105.66,1099.38 3105.33,1101.38 3105.5,1103.5C 3104.85,1102.73 3104.52,1101.73 3104.5,1100.5C 3104.64,1098.97 3105.31,1097.97 3106.5,1097.5 Z"/></g>
<g><path style="opacity:1" fill="#7191b5" d="M 2747.5,1097.5 C 2784.15,1098.45 2820.82,1098.79 2857.5,1098.5C 2823,1099.66 2788.34,1099.83 2753.5,1099C 2751.29,1098.81 2749.29,1098.31 2747.5,1097.5 Z"/></g>
<g><path style="opacity:1" fill="#dde5ed" d="M 3160.5,1099.5 C 3161.04,1099.56 3161.38,1099.89 3161.5,1100.5C 3160.49,1103.95 3159.49,1107.29 3158.5,1110.5C 3158.42,1106.66 3159.08,1103 3160.5,1099.5 Z"/></g>
<g><path style="opacity:1" fill="#c9d5e3" d="M 1742.5,1068.5 C 1743.17,1074.99 1743.5,1081.66 1743.5,1088.5C 1743.1,1112 1742.43,1135.34 1741.5,1158.5C 1741.68,1128.5 1742.01,1098.5 1742.5,1068.5 Z"/></g>
<g><path style="opacity:1" fill="#dbe4ec" d="M 2910.5,1100.5 C 2912.06,1106.26 2912.72,1112.26 2912.5,1118.5C 2911.32,1112.7 2910.65,1106.7 2910.5,1100.5 Z"/></g>
<g><path style="opacity:1" fill="#f3f4f6" d="M 2250.5,1110.5 C 2251.17,1114.82 2251.5,1119.32 2251.5,1124C 2251.49,1128.89 2250.83,1133.39 2249.5,1137.5C 2250.47,1128.58 2250.8,1119.58 2250.5,1110.5 Z"/></g>
<g><path style="opacity:1" fill="#92abc5" d="M 1579.5,1085.5 C 1576.03,1105.67 1574.7,1126 1575.5,1146.5C 1574.03,1128.6 1574.53,1110.6 1577,1092.5C 1577.16,1089.81 1577.99,1087.48 1579.5,1085.5 Z"/></g>
<g><path style="opacity:1" fill="#d9e3eb" d="M 2691.5,1105.5 C 2690.17,1120.83 2690.17,1136.17 2691.5,1151.5C 2689.95,1144.07 2689.28,1136.4 2689.5,1128.5C 2689.28,1120.6 2689.95,1112.93 2691.5,1105.5 Z"/></g>
<g><path style="opacity:1" fill="#3f729c" d="M 1631.5,1099.5 C 1629.72,1106.05 1628.72,1112.71 1628.5,1119.5C 1627.36,1116.7 1627.2,1113.7 1628,1110.5C 1628.42,1106.47 1629.58,1102.8 1631.5,1099.5 Z"/></g>
<g><path style="opacity:1" fill="#b5c5d8" d="M 2912.5,1118.5 C 2913.41,1124.33 2914.08,1130.33 2914.5,1136.5C 2857.17,1136.5 2799.83,1136.5 2742.5,1136.5C 2799.33,1135.5 2856.33,1135.17 2913.5,1135.5C 2912.65,1129.88 2912.31,1124.21 2912.5,1118.5 Z"/></g>
<g><path style="opacity:1" fill="#2e6696" d="M 3269.5,1067.5 C 3270.5,1067.5 3271.5,1067.5 3272.5,1067.5C 3272.77,1106.01 3272.1,1144.35 3270.5,1182.5C 3270.7,1156.17 3271.03,1129.83 3271.5,1103.5C 3271.48,1091.28 3270.81,1079.28 3269.5,1067.5 Z"/></g>
<g><path style="opacity:1" fill="#c7d4e2" d="M 3158.5,1110.5 C 3157.21,1121.5 3157.21,1132.5 3158.5,1143.5C 3155.87,1132.5 3155.87,1121.5 3158.5,1110.5 Z"/></g>
<g><path style="opacity:1" fill="#829ebe" d="M 2032.5,1129.5 C 2033.25,1163.01 2033.91,1196.67 2034.5,1230.5C 2033.68,1227.36 2033.18,1224.03 2033,1220.5C 2032.5,1190.17 2032.33,1159.84 2032.5,1129.5 Z"/></g>
<g><path style="opacity:1" fill="#e91d32" d="M 291.5,1140.5 C 302.833,1140.5 314.167,1140.5 325.5,1140.5C 325.5,1174.83 325.5,1209.17 325.5,1243.5C 357.168,1243.33 388.835,1243.5 420.5,1244C 420.532,1254.49 420.865,1265.33 421.5,1276.5C 389.907,1277.49 358.24,1277.83 326.5,1277.5C 325.833,1311.5 325.167,1345.5 324.5,1379.5C 312.833,1379.5 301.167,1379.5 289.5,1379.5C 289.832,1345.33 289.498,1311.33 288.5,1277.5C 256.833,1277.5 225.167,1277.5 193.5,1277.5C 193.5,1266.17 193.5,1254.83 193.5,1243.5C 225.167,1243.5 256.833,1243.5 288.5,1243.5C 288.847,1209.12 289.847,1174.78 291.5,1140.5 Z"/></g>
<g><path style="opacity:1" fill="#f16874" d="M 291.5,1140.5 C 289.847,1174.78 288.847,1209.12 288.5,1243.5C 288.5,1243.17 288.5,1242.83 288.5,1242.5C 288.5,1208.5 288.5,1174.5 288.5,1140.5C 289.5,1140.5 290.5,1140.5 291.5,1140.5 Z"/></g>
<g><path style="opacity:1" fill="#2a6295" d="M 727.5,1140.5 C 727.5,1140.83 727.5,1141.17 727.5,1141.5C 715.5,1141.5 703.5,1141.5 691.5,1141.5C 691.832,1175.67 691.498,1209.67 690.5,1243.5C 690.5,1243.17 690.5,1242.83 690.5,1242.5C 690.5,1208.5 690.5,1174.5 690.5,1140.5C 702.833,1140.5 715.167,1140.5 727.5,1140.5 Z"/></g>
<g><path style="opacity:1" fill="#004281" d="M 727.5,1141.5 C 727.5,1175.5 727.5,1209.5 727.5,1243.5C 759.5,1243.5 791.5,1243.5 823.5,1243.5C 823.5,1254.17 823.5,1264.83 823.5,1275.5C 791.5,1275.5 759.5,1275.5 727.5,1275.5C 727.5,1310.17 727.5,1344.83 727.5,1379.5C 715.167,1379.5 702.833,1379.5 690.5,1379.5C 690.5,1345.17 690.5,1310.83 690.5,1276.5C 659.004,1275.5 627.338,1275.17 595.5,1275.5C 595.5,1264.83 595.5,1254.17 595.5,1243.5C 627.167,1243.5 658.833,1243.5 690.5,1243.5C 691.498,1209.67 691.832,1175.67 691.5,1141.5C 703.5,1141.5 715.5,1141.5 727.5,1141.5 Z"/></g>
<g><path style="opacity:1" fill="#5585a7" d="M 1628.5,1142.5 C 1629.87,1146.3 1630.87,1150.3 1631.5,1154.5C 1629.31,1150.9 1628.31,1146.9 1628.5,1142.5 Z"/></g>
<g><path style="opacity:1" fill="#edf1f4" d="M 2195.5,1143.5 C 2195.55,1145.9 2195.22,1148.24 2194.5,1150.5C 2193.9,1150.26 2193.57,1149.76 2193.5,1149C 2193.95,1146.97 2194.62,1145.14 2195.5,1143.5 Z"/></g>
<g><path style="opacity:1" fill="#e0e8ee" d="M 3158.5,1143.5 C 3159.49,1146.71 3160.49,1150.05 3161.5,1153.5C 3161.38,1154.11 3161.04,1154.44 3160.5,1154.5C 3159.08,1151 3158.42,1147.34 3158.5,1143.5 Z"/></g>
<g><path style="opacity:1" fill="#809ebc" d="M 1575.5,1146.5 C 1577.07,1152.66 1578.4,1159 1579.5,1165.5C 1576.91,1159.55 1575.57,1153.21 1575.5,1146.5 Z"/></g>
<g><path style="opacity:1" fill="#b7c8d9" d="M 2691.5,1151.5 C 2693.43,1156.57 2694.77,1161.91 2695.5,1167.5C 2693.25,1162.5 2691.92,1157.17 2691.5,1151.5 Z"/></g>
<g><path style="opacity:1" fill="#dee7ee" d="M 1741.5,1158.5 C 1741.67,1167.51 1741.5,1176.51 1741,1185.5C 1740.82,1188.36 1740.32,1191.03 1739.5,1193.5C 1739.94,1181.67 1740.61,1170 1741.5,1158.5 Z"/></g>
<g><path style="opacity:1" fill="#f5f7f8" d="M 3718.5,1159.5 C 3719.17,1162.65 3719.5,1165.98 3719.5,1169.5C 3719.49,1173.24 3718.82,1176.57 3717.5,1179.5C 3717.5,1179.17 3717.5,1178.83 3717.5,1178.5C 3718.49,1172.36 3718.82,1166.02 3718.5,1159.5 Z"/></g>
<g><path style="opacity:1" fill="#dae4eb" d="M 3106.5,1155.5 C 3106.83,1158.17 3107.17,1160.83 3107.5,1163.5C 3105.59,1160.96 3105.25,1158.29 3106.5,1155.5 Z"/></g>
<g><path style="opacity:1" fill="#41839f" d="M 3719.5,1157.5 C 3719.17,1158.17 3718.83,1158.83 3718.5,1159.5C 3718.82,1166.02 3718.49,1172.36 3717.5,1178.5C 3716.87,1171.09 3717.54,1164.09 3719.5,1157.5 Z"/></g>
<g><path style="opacity:1" fill="#d4dfe9" d="M 2248.5,1155.5 C 2248.78,1158.83 2248.12,1161.83 2246.5,1164.5C 2246.68,1161.27 2247.34,1158.27 2248.5,1155.5 Z"/></g>
<g><path style="opacity:1" fill="#d2dde6" d="M 799.5,1091.5 C 800.498,1115.33 800.831,1139.33 800.5,1163.5C 811.5,1163.5 822.5,1163.5 833.5,1163.5C 822.346,1164.49 811.012,1164.83 799.5,1164.5C 799.5,1140.17 799.5,1115.83 799.5,1091.5 Z"/></g>
<g><path style="opacity:1" fill="#b7c8d9" d="M 1634.5,1162.5 C 1637,1165.49 1639,1168.83 1640.5,1172.5C 1637.5,1169.84 1635.5,1166.51 1634.5,1162.5 Z"/></g>
<g><path style="opacity:1" fill="#7194b5" d="M 3667.5,1162.5 C 3668.04,1162.56 3668.38,1162.89 3668.5,1163.5C 3667.98,1167.74 3666.98,1171.74 3665.5,1175.5C 3665.92,1171.09 3666.59,1166.76 3667.5,1162.5 Z"/></g>
<g><path style="opacity:1" fill="#88a9c0" d="M 2749.5,1162.5 C 2752.33,1166.16 2754.67,1170.16 2756.5,1174.5C 2754.2,1172.6 2752.37,1170.27 2751,1167.5C 2749.99,1165.98 2749.49,1164.31 2749.5,1162.5 Z"/></g>
<g><path style="opacity:1" fill="#5188a5" d="M 3565.5,1161.5 C 3566.56,1165.64 3567.23,1169.97 3567.5,1174.5C 3565.82,1170.46 3565.16,1166.12 3565.5,1161.5 Z"/></g>
<g><path style="opacity:1" fill="#6f8eb3" d="M 2186.5,1169.5 C 2186.37,1173.63 2184.37,1176.29 2180.5,1177.5C 2182.92,1175.09 2184.92,1172.43 2186.5,1169.5 Z"/></g>
<g><path style="opacity:1" fill="#a4b9cf" d="M 3110.5,1173.5 C 3112.93,1176.71 3114.6,1180.38 3115.5,1184.5C 3113.07,1181.29 3111.4,1177.62 3110.5,1173.5 Z"/></g>
<g><path style="opacity:1" fill="#6a94b1" d="M 2696.5,1170.5 C 2699.01,1174.87 2701.01,1179.53 2702.5,1184.5C 2699.45,1180.39 2697.45,1175.72 2696.5,1170.5 Z"/></g>
<g><path style="opacity:1" fill="#8ea9c4" d="M 2244.5,1170.5 C 2243.55,1175.72 2241.55,1180.39 2238.5,1184.5C 2239.99,1179.53 2241.99,1174.87 2244.5,1170.5 Z"/></g>
<g><path style="opacity:1" fill="#3f7f9e" d="M 3270.5,1182.5 C 3271.09,1186.97 3270.42,1190.97 3268.5,1194.5C 3269.11,1190.4 3269.78,1186.4 3270.5,1182.5 Z"/></g>
<g><path style="opacity:1" fill="#b6c8d9" d="M 3663.5,1181.5 C 3662.59,1184.99 3660.92,1187.99 3658.5,1190.5C 3659.39,1187.05 3661.06,1184.05 3663.5,1181.5 Z"/></g>
<g><path style="opacity:1" fill="#b1c2d5" d="M 1651.5,1183.5 C 1654.06,1185.27 1656.39,1187.27 1658.5,1189.5C 1655.11,1188.65 1652.78,1186.65 1651.5,1183.5 Z"/></g>
<g><path style="opacity:1" fill="#a9bed2" d="M 2888.5,1187.5 C 2885.63,1189.79 2882.3,1191.13 2878.5,1191.5C 2881.53,1189.6 2884.86,1188.26 2888.5,1187.5 Z"/></g>
<g><path style="opacity:1" fill="#bbcadb" d="M 3570.5,1182.5 C 3573.41,1184.76 3575.07,1187.76 3575.5,1191.5C 3573.44,1188.76 3571.77,1185.76 3570.5,1182.5 Z"/></g>
<g><path style="opacity:1" fill="#8dadc3" d="M 2166.5,1189.5 C 2164.66,1191.59 2162.33,1192.92 2159.5,1193.5C 2161.34,1191.41 2163.67,1190.08 2166.5,1189.5 Z"/></g>
<g><path style="opacity:1" fill="#98b3c8" d="M 2771.5,1188.5 C 2774.54,1189.68 2777.21,1191.35 2779.5,1193.5C 2777,1193.02 2774.66,1192.02 2772.5,1190.5C 2771.7,1190.04 2771.37,1189.38 2771.5,1188.5 Z"/></g>
<g><path style="opacity:1" fill="#90adc4" d="M 3190.5,1190.5 C 3193.48,1191.33 3196.15,1192.66 3198.5,1194.5C 3195.25,1194.21 3192.58,1192.87 3190.5,1190.5 Z"/></g>
<g><path style="opacity:1" fill="#7595b7" d="M 2084.5,1192.5 C 2088.76,1192.9 2092.76,1193.9 2096.5,1195.5C 2092.16,1195.42 2088.16,1194.42 2084.5,1192.5 Z"/></g>
<g><path style="opacity:1" fill="#adbed3" d="M 1589.5,1191.5 C 1592.85,1194.54 1595.52,1198.21 1597.5,1202.5C 1594.13,1199.47 1591.47,1195.8 1589.5,1191.5 Z"/></g>
<g><path style="opacity:1" fill="#3f739d" d="M 2898.5,1230.5 C 2899.69,1215.23 2899.69,1199.89 2898.5,1184.5C 2897.17,1184.5 2895.83,1184.5 2894.5,1184.5C 2895.53,1183.75 2896.7,1183.08 2898,1182.5C 2898.33,1182.83 2898.67,1183.17 2899,1183.5C 2900.01,1192.8 2900.51,1202.14 2900.5,1211.5C 2900.5,1218.2 2899.83,1224.54 2898.5,1230.5 Z"/></g>
<g><path style="opacity:1" fill="#c6d3e1" d="M 2708.5,1195.5 C 2709.4,1196.29 2710.07,1197.29 2710.5,1198.5C 2708.95,1198.18 2708.29,1197.18 2708.5,1195.5 Z"/></g>
<g><path style="opacity:1" fill="#43789f" d="M 1674.5,1196.5 C 1679.01,1196.88 1683.34,1197.55 1687.5,1198.5C 1684.15,1198.67 1680.82,1198.5 1677.5,1198C 1676.26,1197.77 1675.26,1197.27 1674.5,1196.5 Z"/></g>
<g><path style="opacity:1" fill="#39729a" d="M 1732.5,1196.5 C 1728.43,1198.05 1724.1,1198.72 1719.5,1198.5C 1723.62,1197.29 1727.95,1196.62 1732.5,1196.5 Z"/></g>
<g><path style="opacity:1" fill="#2f6496" d="M 2105.5,1197.5 C 2114.82,1198.23 2124.15,1198.57 2133.5,1198.5C 2130.18,1199.17 2126.68,1199.5 2123,1199.5C 2116.93,1199.61 2111.1,1198.94 2105.5,1197.5 Z"/></g>
<g><path style="opacity:1" fill="#306596" d="M 3208.5,1197.5 C 3224.49,1198.77 3240.49,1198.77 3256.5,1197.5C 3248.22,1199.02 3239.72,1199.68 3231,1199.5C 3225.17,1199.33 3219.33,1199.17 3213.5,1199C 3211.62,1198.8 3209.95,1198.3 3208.5,1197.5 Z"/></g>
<g><path style="opacity:1" fill="#e2e8ee" d="M 2230.5,1198.5 C 2230.71,1200.18 2230.05,1201.18 2228.5,1201.5C 2228.93,1200.29 2229.6,1199.29 2230.5,1198.5 Z"/></g>
<g><path style="opacity:1" fill="#c5d2df" d="M 2710.5,1198.5 C 2712.26,1199.26 2713.26,1200.6 2713.5,1202.5C 2711.74,1201.74 2710.74,1200.4 2710.5,1198.5 Z"/></g>
<g><path style="opacity:1" fill="#d4dfe9" d="M 1792.5,1189.5 C 1792.6,1203.85 1792.27,1218.18 1791.5,1232.5C 1789.5,1232.83 1787.5,1233.17 1785.5,1233.5C 1786.78,1232.07 1788.45,1231.4 1790.5,1231.5C 1790.93,1217.33 1791.6,1203.33 1792.5,1189.5 Z"/></g>
<g><path style="opacity:1" fill="#c0cddd" d="M 3603.5,1205.5 C 3612.5,1206.79 3621.5,1206.79 3630.5,1205.5C 3621.49,1208.13 3612.49,1208.13 3603.5,1205.5 Z"/></g>
<g><path style="opacity:1" fill="#91abc5" d="M 3704.5,1209.5 C 3704.07,1210.71 3703.4,1211.71 3702.5,1212.5C 3702.29,1210.82 3702.95,1209.82 3704.5,1209.5 Z"/></g>
<g><path style="opacity:1" fill="#fedbc2" d="M 486.5,1099.5 C 486.5,1137.17 486.5,1174.83 486.5,1212.5C 500.833,1212.5 515.167,1212.5 529.5,1212.5C 515.01,1213.5 500.343,1213.83 485.5,1213.5C 485.168,1175.33 485.501,1137.33 486.5,1099.5 Z"/></g>
<g><path style="opacity:1" fill="#809fbc" d="M 3529.5,1210.5 C 3532.56,1211.27 3534.23,1213.27 3534.5,1216.5C 3532.84,1214.54 3531.18,1212.54 3529.5,1210.5 Z"/></g>
<g><path style="opacity:1" fill="#548ba7" d="M 3320.5,1210.5 C 3320.5,1217.83 3320.5,1225.17 3320.5,1232.5C 3319.5,1232.5 3318.5,1232.5 3317.5,1232.5C 3319.09,1225.26 3320.09,1217.92 3320.5,1210.5 Z"/></g>
<g><path style="opacity:1" fill="#cbd5e2" d="M 1609.5,1215.5 C 1612.06,1217.27 1614.39,1219.27 1616.5,1221.5C 1613.11,1220.65 1610.78,1218.65 1609.5,1215.5 Z"/></g>
<g><path style="opacity:1" fill="#cedce5" d="M 2729.5,1218.5 C 2730.83,1219.17 2731.83,1220.17 2732.5,1221.5C 2730.5,1221.5 2729.5,1220.5 2729.5,1218.5 Z"/></g>
<g><path style="opacity:1" fill="#93adc5" d="M 1627.5,1228.5 C 1629.38,1228.23 1630.71,1228.9 1631.5,1230.5C 1629.85,1230.34 1628.51,1229.67 1627.5,1228.5 Z"/></g>
<g><path style="opacity:1" fill="#a7bdd0" d="M 2747.5,1231.5 C 2750.33,1232.08 2752.66,1233.41 2754.5,1235.5C 2751.67,1234.92 2749.34,1233.59 2747.5,1231.5 Z"/></g>
<g><path style="opacity:1" fill="#abc2d2" d="M 2189.5,1232.5 C 2187.82,1234.01 2185.82,1235.01 2183.5,1235.5C 2184.91,1233.46 2186.91,1232.46 2189.5,1232.5 Z"/></g>
<g><path style="opacity:1" fill="#afc3d5" d="M 3164.5,1232.5 C 3167.91,1233.04 3170.91,1234.38 3173.5,1236.5C 3170.09,1235.96 3167.09,1234.62 3164.5,1232.5 Z"/></g>
<g><path style="opacity:1" fill="#bfcedc" d="M 2892.5,1233.5 C 2889.94,1235.61 2886.94,1236.94 2883.5,1237.5C 2886.09,1235.41 2889.09,1234.07 2892.5,1233.5 Z"/></g>
<g><path style="opacity:1" fill="#bfcfdd" d="M 2045.5,1234.5 C 2049.16,1234.72 2052.5,1235.72 2055.5,1237.5C 2051.84,1237.28 2048.5,1236.28 2045.5,1234.5 Z"/></g>
<g><path style="opacity:1" fill="#c4d1e0" d="M 3310.5,1234.5 C 3307.85,1236.25 3304.85,1237.25 3301.5,1237.5C 3304.15,1235.75 3307.15,1234.75 3310.5,1234.5 Z"/></g>
<g><path style="opacity:1" fill="#d5dfe9" d="M 3564.5,1235.5 C 3566.38,1235.23 3567.71,1235.9 3568.5,1237.5C 3566.85,1237.34 3565.51,1236.67 3564.5,1235.5 Z"/></g>
<g><path style="opacity:1" fill="#d0dbe6" d="M 3671.5,1234.5 C 3668.63,1236.79 3665.3,1238.13 3661.5,1238.5C 3664.53,1236.6 3667.86,1235.26 3671.5,1234.5 Z"/></g>
<g><path style="opacity:1" fill="#dee5ec" d="M 1647.5,1237.5 C 1650.54,1237.73 1653.21,1238.73 1655.5,1240.5C 1652.46,1240.27 1649.79,1239.27 1647.5,1237.5 Z"/></g>
<g><path style="opacity:1" fill="#fbcbca" d="M 325.5,1140.5 C 326.498,1174.33 326.832,1208.33 326.5,1242.5C 358.168,1242.33 389.835,1242.5 421.5,1243C 422.487,1254.09 422.821,1265.25 422.5,1276.5C 422.167,1276.5 421.833,1276.5 421.5,1276.5C 420.865,1265.33 420.532,1254.49 420.5,1244C 388.835,1243.5 357.168,1243.33 325.5,1243.5C 325.5,1209.17 325.5,1174.83 325.5,1140.5 Z"/></g>
<g><path style="opacity:1" fill="#cdd9e5" d="M 727.5,1140.5 C 728.498,1174.33 728.832,1208.33 728.5,1242.5C 760.5,1242.5 792.5,1242.5 824.5,1242.5C 824.5,1253.83 824.5,1265.17 824.5,1276.5C 792.5,1276.5 760.5,1276.5 728.5,1276.5C 728.5,1311.17 728.5,1345.83 728.5,1380.5C 715.656,1380.83 702.989,1380.5 690.5,1379.5C 702.833,1379.5 715.167,1379.5 727.5,1379.5C 727.5,1344.83 727.5,1310.17 727.5,1275.5C 759.5,1275.5 791.5,1275.5 823.5,1275.5C 823.5,1264.83 823.5,1254.17 823.5,1243.5C 791.5,1243.5 759.5,1243.5 727.5,1243.5C 727.5,1209.5 727.5,1175.5 727.5,1141.5C 727.5,1141.17 727.5,1140.83 727.5,1140.5 Z"/></g>
<g><path style="opacity:1" fill="#346e99" d="M 2080.5,1242.5 C 2106.17,1243.83 2131.83,1243.83 2157.5,1242.5C 2155.03,1243.32 2152.36,1243.82 2149.5,1244C 2129.17,1244.67 2108.83,1244.67 2088.5,1244C 2085.64,1243.82 2082.97,1243.32 2080.5,1242.5 Z"/></g>
<g><path style="opacity:1" fill="#3e739d" d="M 3197.5,1242.5 C 3203.34,1242.9 3209.01,1243.57 3214.5,1244.5C 3210.15,1244.67 3205.82,1244.5 3201.5,1244C 3199.94,1243.79 3198.61,1243.29 3197.5,1242.5 Z"/></g>
<g><path style="opacity:1" fill="#9cb5cb" d="M 690.5,1242.5 C 690.5,1242.83 690.5,1243.17 690.5,1243.5C 658.833,1243.5 627.167,1243.5 595.5,1243.5C 595.5,1254.17 595.5,1264.83 595.5,1275.5C 627.338,1275.17 659.004,1275.5 690.5,1276.5C 658.5,1276.5 626.5,1276.5 594.5,1276.5C 594.5,1265.17 594.5,1253.83 594.5,1242.5C 626.5,1242.5 658.5,1242.5 690.5,1242.5 Z"/></g>
<g><path style="opacity:1" fill="#a7b9d0" d="M 1262.5,1099.5 C 1263.5,1149 1263.83,1198.66 1263.5,1248.5C 1246.83,1248.5 1230.17,1248.5 1213.5,1248.5C 1213.5,1248.17 1213.5,1247.83 1213.5,1247.5C 1229.83,1247.5 1246.17,1247.5 1262.5,1247.5C 1262.5,1198.17 1262.5,1148.83 1262.5,1099.5 Z"/></g>
<g><path style="opacity:1" fill="#7192b5" d="M 2843.5,1246.5 C 2836.56,1247.97 2829.39,1248.64 2822,1248.5C 2817.32,1248.5 2812.82,1248.17 2808.5,1247.5C 2820.18,1247.6 2831.85,1247.27 2843.5,1246.5 Z"/></g>
<g><path style="opacity:1" fill="#fac0c3" d="M 288.5,1242.5 C 288.5,1242.83 288.5,1243.17 288.5,1243.5C 256.833,1243.5 225.167,1243.5 193.5,1243.5C 193.5,1254.83 193.5,1266.17 193.5,1277.5C 225.167,1277.5 256.833,1277.5 288.5,1277.5C 288.5,1277.83 288.5,1278.17 288.5,1278.5C 256.5,1278.5 224.5,1278.5 192.5,1278.5C 192.5,1266.5 192.5,1254.5 192.5,1242.5C 224.5,1242.5 256.5,1242.5 288.5,1242.5 Z"/></g>
<g><path style="opacity:1" fill="#f16975" d="M 288.5,1277.5 C 289.498,1311.33 289.832,1345.33 289.5,1379.5C 301.167,1379.5 312.833,1379.5 324.5,1379.5C 324.5,1379.83 324.5,1380.17 324.5,1380.5C 312.5,1380.5 300.5,1380.5 288.5,1380.5C 288.5,1346.5 288.5,1312.5 288.5,1278.5C 288.5,1278.17 288.5,1277.83 288.5,1277.5 Z"/></g>
<g><path style="opacity:1" fill="#f7a4a5" d="M 326.5,1277.5 C 326.5,1277.83 326.5,1278.17 326.5,1278.5C 327.16,1312.85 326.493,1346.85 324.5,1380.5C 324.5,1380.17 324.5,1379.83 324.5,1379.5C 325.167,1345.5 325.833,1311.5 326.5,1277.5 Z"/></g>
<g><path style="opacity:1" fill="#f7f7f8" d="M 421.5,1276.5 C 421.833,1276.5 422.167,1276.5 422.5,1276.5C 422.389,1277.12 422.056,1277.62 421.5,1278C 389.835,1278.5 358.168,1278.67 326.5,1278.5C 326.5,1278.17 326.5,1277.83 326.5,1277.5C 358.24,1277.83 389.907,1277.49 421.5,1276.5 Z"/></g>
<g><path style="opacity:1" fill="#d5dfe9" d="M 492.5,1286.5 C 495.5,1285.17 498.5,1285.17 501.5,1286.5C 498.71,1286.75 495.71,1286.75 492.5,1286.5 Z"/></g>
<g><path style="opacity:1" fill="#586795" d="M 508.5,1286.5 C 512.711,1286.68 516.711,1286.68 520.5,1286.5C 522.049,1286.26 523.549,1286.26 525,1286.5C 525.333,1310.17 525.667,1333.83 526,1357.5C 526.383,1358.06 526.883,1358.39 527.5,1358.5C 530.622,1358.72 533.956,1358.72 537.5,1358.5C 540.5,1358.5 543.5,1358.5 546.5,1358.5C 549.622,1358.72 552.956,1358.72 556.5,1358.5C 559.5,1358.5 562.5,1358.5 565.5,1358.5C 568.622,1358.72 571.956,1358.72 575.5,1358.5C 578.5,1358.5 581.5,1358.5 584.5,1358.5C 585.973,1359.07 587.64,1359.07 589.5,1358.5C 589.5,1368.17 589.5,1377.83 589.5,1387.5C 567.993,1387.17 546.66,1387.5 525.5,1388.5C 526.157,1412.86 525.49,1436.86 523.5,1460.5C 513.347,1459.51 503.014,1459.17 492.5,1459.5C 492.5,1435.5 492.5,1411.5 492.5,1387.5C 470.833,1387.5 449.167,1387.5 427.5,1387.5C 427.334,1377.83 427.5,1368.16 428,1358.5C 429.451,1358.26 430.951,1358.26 432.5,1358.5C 435.622,1358.72 438.956,1358.72 442.5,1358.5C 445.5,1358.5 448.5,1358.5 451.5,1358.5C 454.622,1358.72 457.956,1358.72 461.5,1358.5C 464.5,1358.5 467.5,1358.5 470.5,1358.5C 473.622,1358.72 476.956,1358.72 480.5,1358.5C 484.05,1357.4 487.55,1357.4 491,1358.5C 491.168,1334.33 491.668,1310.33 492.5,1286.5C 495.71,1286.75 498.71,1286.75 501.5,1286.5C 503.833,1285.17 506.167,1285.17 508.5,1286.5 Z"/></g>
<g><path style="opacity:1" fill="#d9e1ea" d="M 508.5,1286.5 C 512.5,1285.17 516.5,1285.17 520.5,1286.5C 516.711,1286.68 512.711,1286.68 508.5,1286.5 Z"/></g>
<g><path style="opacity:1" fill="#ecf0f4" d="M 432.5,1358.5 C 435.833,1357.17 439.167,1357.17 442.5,1358.5C 438.956,1358.72 435.622,1358.72 432.5,1358.5 Z"/></g>
<g><path style="opacity:1" fill="#ecf0f4" d="M 451.5,1358.5 C 454.833,1357.17 458.167,1357.17 461.5,1358.5C 457.956,1358.72 454.622,1358.72 451.5,1358.5 Z"/></g>
<g><path style="opacity:1" fill="#ecf0f4" d="M 470.5,1358.5 C 473.833,1357.17 477.167,1357.17 480.5,1358.5C 476.956,1358.72 473.622,1358.72 470.5,1358.5 Z"/></g>
<g><path style="opacity:1" fill="#ecf0f4" d="M 527.5,1358.5 C 530.833,1357.17 534.167,1357.17 537.5,1358.5C 533.956,1358.72 530.622,1358.72 527.5,1358.5 Z"/></g>
<g><path style="opacity:1" fill="#ecf0f4" d="M 546.5,1358.5 C 549.833,1357.17 553.167,1357.17 556.5,1358.5C 552.956,1358.72 549.622,1358.72 546.5,1358.5 Z"/></g>
<g><path style="opacity:1" fill="#e9eef2" d="M 565.5,1358.5 C 568.833,1357.17 572.167,1357.17 575.5,1358.5C 571.956,1358.72 568.622,1358.72 565.5,1358.5 Z"/></g>
<g><path style="opacity:1" fill="#bdcedd" d="M 584.5,1358.5 C 586.265,1357.54 588.265,1357.21 590.5,1357.5C 590.5,1367.83 590.5,1378.17 590.5,1388.5C 568.833,1388.5 547.167,1388.5 525.5,1388.5C 546.66,1387.5 567.993,1387.17 589.5,1387.5C 589.5,1377.83 589.5,1368.17 589.5,1358.5C 587.64,1359.07 585.973,1359.07 584.5,1358.5 Z"/></g>
<g><path style="opacity:1" fill="#c8d3e1" d="M 427.5,1387.5 C 449.167,1387.5 470.833,1387.5 492.5,1387.5C 492.5,1411.5 492.5,1435.5 492.5,1459.5C 503.014,1459.17 513.347,1459.51 523.5,1460.5C 512.833,1460.5 502.167,1460.5 491.5,1460.5C 491.5,1436.5 491.5,1412.5 491.5,1388.5C 469.993,1388.83 448.66,1388.5 427.5,1387.5 Z"/></g>
</svg>
