<?xml version="1.0" standalone="no"?>
<!DOCTYPE svg PUBLIC "-//W3C//DTD SVG 20010904//EN"
 "http://www.w3.org/TR/2001/REC-SVG-20010904/DTD/svg10.dtd">
<svg version="1.0" xmlns="http://www.w3.org/2000/svg"
 width="344.000000pt" height="204.000000pt" viewBox="0 0 344.000000 204.000000"
 preserveAspectRatio="xMidYMid meet">

<g transform="translate(0.000000,204.000000) scale(0.100000,-0.100000)"
fill="#000000" stroke="none">
<path d="M0 1020 l0 -1020 635 0 c621 0 635 0 635 19 0 14 -8 21 -27 23 -30 3
-39 23 -29 64 5 20 12 24 47 24 l41 0 -4 -65 -3 -65 1073 0 1072 0 0 1020 0
1020 -1720 0 -1720 0 0 -1020z m330 821 l0 -128 -52 -7 c-29 -3 -90 -6 -135
-6 l-83 0 0 130 0 129 68 4 c37 2 97 4 135 5 l67 2 0 -129z m2844 -187 c68
-26 129 -83 157 -146 23 -52 23 -62 30 -448 3 -217 6 -396 5 -396 -1 -1 -62
-3 -136 -5 l-135 -4 -3 62 -3 61 -48 -47 c-63 -63 -140 -93 -241 -94 -139 -2
-235 52 -286 161 -22 47 -27 70 -27 137 1 136 51 224 160 283 85 45 161 63
303 70 l125 7 -3 34 c-3 46 -27 92 -60 116 -20 15 -47 21 -106 24 -90 4 -131
-6 -229 -55 -47 -23 -69 -30 -72 -21 -10 35 -15 216 -5 222 6 4 61 20 123 36
104 27 122 29 257 25 111 -2 156 -8 194 -22z m-1039 -43 c37 -18 79 -49 99
-72 74 -87 116 -226 116 -387 l0 -89 -282 -7 c-156 -5 -284 -9 -286 -10 -9
-10 24 -112 45 -137 76 -90 251 -96 414 -14 l46 24 7 -82 c12 -163 16 -152
-61 -175 -110 -33 -169 -42 -261 -42 -262 0 -419 132 -462 390 -31 188 22 389
134 508 94 100 183 134 333 128 80 -3 102 -8 158 -35z m-985 -6 c98 -35 173
-131 211 -270 30 -108 33 -347 5 -444 -37 -135 -94 -214 -184 -258 -49 -24
-69 -28 -142 -28 -72 0 -92 4 -130 25 -24 14 -59 44 -77 68 l-33 43 -2 -268
-3 -268 -140 0 -140 0 0 78 c0 42 2 353 3 691 l2 614 129 1 c146 2 140 6 141
-94 1 -41 3 -46 10 -27 18 43 103 117 155 134 63 21 140 22 195 3z m-820 -515
l0 -490 -141 0 -140 0 3 474 c2 261 7 478 11 483 5 4 66 11 135 14 70 3 128 6
130 7 1 1 2 -218 2 -488z m2375 -952 c14 -29 25 -61 25 -70 0 -22 -18 -24 -26
-3 -8 19 -50 19 -58 0 -5 -15 -36 -21 -36 -7 0 8 39 112 46 124 12 18 26 5 49
-44z m175 -19 c0 -52 -3 -70 -12 -67 -8 3 -14 29 -16 71 -2 55 0 67 13 67 12
0 15 -14 15 -71z m45 3 c0 -85 -19 -84 -23 1 -2 53 0 68 10 65 9 -3 13 -25 13
-66z m305 3 l0 -65 -40 0 c-44 0 -61 21 -52 66 4 24 34 40 52 29 5 -3 10 3 10
14 0 12 7 21 15 21 12 0 15 -14 15 -65z m-1085 33 c0 -10 6 -23 13 -30 16 -16
15 -53 -2 -67 -8 -7 -27 -11 -43 -9 -22 2 -29 9 -31 31 -5 39 25 99 46 95 9
-2 17 -11 17 -20z m215 -43 c0 -52 -3 -65 -15 -65 -13 0 -15 12 -14 65 1 47 6
65 15 65 10 0 14 -17 14 -65z m-920 -10 c0 -52 -3 -65 -16 -65 -12 0 -15 11
-13 58 2 61 5 72 20 72 5 0 9 -29 9 -65z m330 50 c0 -10 -10 -15 -30 -15 -16
0 -30 -4 -30 -9 0 -6 12 -9 26 -8 36 3 43 -21 8 -25 -40 -5 -42 -26 -2 -30 48
-4 36 -23 -14 -23 l-43 0 -3 63 -3 62 46 0 c33 0 45 -4 45 -15z m-1428 -64
c-2 -34 -8 -61 -13 -61 -10 0 -11 106 -2 123 11 20 18 -7 15 -62z m426 8 c-3
-59 -4 -62 -30 -65 -30 -3 -58 18 -58 42 0 27 20 54 40 54 11 0 20 7 20 15 0
8 7 15 15 15 13 0 15 -11 13 -61z m247 41 c9 -28 -12 -60 -40 -60 -16 0 -25
-6 -27 -20 -7 -45 -23 -22 -26 38 l-3 62 45 0 c36 0 46 -4 51 -20z m1996 10
c28 -16 24 -33 -6 -26 -18 5 -27 2 -32 -9 -8 -22 15 -45 26 -26 5 7 14 10 20
7 18 -11 13 -26 -14 -38 -51 -23 -90 54 -43 86 27 19 24 19 49 6z m95 2 c6 -4
13 -26 15 -49 4 -40 3 -42 -26 -46 -16 -2 -36 -2 -42 0 -16 6 -17 53 -2 53 8
0 8 4 0 13 -20 25 25 49 55 29z m212 -45 l3 -48 -38 3 c-36 3 -38 5 -38 38 -1
45 12 62 44 58 23 -3 26 -8 29 -51z m-3248 -17 c0 -47 -3 -60 -15 -60 -11 0
-15 13 -15 53 0 30 3 57 7 60 17 17 23 2 23 -53z m230 40 c8 -14 7 -25 -2 -39
-9 -15 -9 -23 2 -35 15 -19 8 -31 -13 -23 -18 7 -28 75 -15 100 11 22 15 21
28 -3z m93 -1 c3 -12 2 -32 -3 -45 -6 -14 -6 -26 0 -29 17 -10 11 -27 -7 -23
-32 6 -36 118 -4 118 5 0 11 -9 14 -21z m138 9 c7 -103 6 -109 -10 -106 -19 4
-33 75 -20 101 11 20 29 23 30 5z m1529 -43 c0 -45 -13 -67 -24 -39 -3 9 -6
27 -6 42 0 33 -17 17 -22 -21 -5 -45 -23 -36 -26 15 -3 44 -2 47 25 50 46 6
53 -1 53 -47z m249 25 c9 -39 7 -63 -7 -68 -6 -2 -13 5 -13 15 -3 37 -4 43
-14 45 -5 2 -11 -12 -13 -29 -5 -47 -32 -44 -32 2 0 19 -4 35 -10 35 -5 0 -10
-16 -10 -35 0 -24 -5 -35 -15 -35 -11 0 -15 11 -15 43 0 24 2 46 4 48 2 2 30
4 62 4 53 0 58 -2 63 -25z m135 24 c9 -3 16 -13 16 -21 0 -11 -7 -13 -25 -9
-21 5 -25 3 -25 -14 0 -17 4 -19 26 -14 22 6 25 4 22 -12 -4 -21 -54 -32 -71
-15 -5 5 -10 24 -9 42 1 42 26 58 66 43z m101 -4 c3 -5 8 -28 11 -50 l5 -40
-41 0 c-43 0 -58 16 -45 48 5 9 9 22 10 27 1 6 3 13 3 18 3 11 50 9 57 -3z
m285 -11 c18 -33 4 -69 -30 -75 -16 -4 -28 -11 -27 -16 1 -6 -4 -13 -10 -15
-8 -3 -14 6 -14 24 -1 15 -2 42 -3 58 -3 42 1 45 39 45 25 0 37 -6 45 -21z
m-1490 -35 c0 -45 24 -41 28 4 6 56 29 36 28 -23 -1 -28 -3 -30 -41 -30 -38 0
-40 2 -43 33 -2 19 -1 41 2 49 10 24 26 4 26 -33z m176 38 c5 -4 10 -25 10
-47 -1 -38 -3 -40 -33 -43 -18 -2 -33 0 -34 5 0 4 -2 23 -3 41 -5 41 29 66 60
44z m102 -43 l3 -46 -35 -1 c-35 -1 -56 22 -37 41 5 5 7 16 4 24 -7 18 15 34
42 31 16 -3 21 -12 23 -49z m241 37 c9 -11 9 -16 0 -22 -7 -4 -14 -3 -17 4 -5
15 -32 3 -32 -13 0 -20 19 -28 35 -15 18 15 31 -6 15 -25 -15 -18 -42 -19 -58
-3 -16 16 -15 75 1 81 23 10 45 7 56 -7z m103 -11 c9 -19 8 -29 -6 -50 -18
-28 -34 -31 -58 -13 -21 18 -27 39 -17 66 12 32 65 31 81 -3z m-1348 2 c39
-29 -1 -106 -41 -81 -25 16 -29 65 -7 81 10 7 21 13 24 13 3 0 14 -6 24 -13z
m235 -1 c31 -37 -9 -103 -46 -80 -37 23 -24 94 17 94 10 0 23 -6 29 -14z m250
0 c21 -25 -1 -85 -31 -86 -16 0 -47 40 -43 55 3 8 7 22 10 30 6 19 49 20 64 1z
m88 -6 c-3 -11 -1 -20 4 -20 19 0 8 -41 -13 -49 -33 -13 -55 3 -56 40 -1 43 4
49 40 49 25 0 29 -3 25 -20z m-1023 -6 c12 -31 7 -74 -9 -74 -10 0 -15 11 -15
35 0 19 -4 35 -10 35 -5 0 -10 -16 -10 -35 0 -24 -5 -35 -15 -35 -11 0 -15 12
-15 45 0 44 0 45 34 45 22 0 36 -6 40 -16z m81 -6 c0 -9 3 -20 7 -24 13 -13
-13 -44 -37 -44 -26 0 -46 21 -26 28 9 3 9 7 0 18 -6 7 -9 21 -5 30 8 21 61
15 61 -8z m185 -8 c0 -20 5 -30 15 -30 10 0 15 10 15 30 0 17 5 30 10 30 6 0
10 -20 10 -44 0 -44 0 -44 -32 -43 -31 2 -33 4 -36 45 -2 25 1 42 7 42 6 0 11
-13 11 -30z"/>
<path d="M2940 1129 c-62 -12 -104 -34 -134 -70 -32 -38 -40 -68 -33 -122 12
-92 118 -128 213 -72 58 34 86 94 92 197 l5 78 -49 -1 c-27 -1 -69 -5 -94 -10z"/>
<path d="M1864 1442 c-39 -25 -71 -90 -79 -164 l-7 -58 48 0 c27 0 93 3 147 7
l97 6 0 42 c0 56 -25 127 -55 155 -34 32 -109 38 -151 12z"/>
<path d="M900 1382 c-41 -21 -75 -83 -89 -168 -25 -141 -2 -310 49 -367 25
-28 35 -32 80 -32 46 0 55 4 80 32 44 49 55 101 55 258 0 153 -16 224 -58 262
-32 29 -78 35 -117 15z"/>
<path d="M2665 120 c-3 -5 -1 -10 4 -10 6 0 11 5 11 10 0 6 -2 10 -4 10 -3 0
-8 -4 -11 -10z"/>
<path d="M3172 109 c1 -13 8 -23 13 -21 15 3 12 35 -3 40 -9 3 -13 -3 -10 -19z"/>
<path d="M2106 103 c-9 -22 10 -41 25 -26 13 13 5 43 -10 43 -5 0 -12 -8 -15
-17z"/>
<path d="M712 83 c5 -25 28 -28 28 -4 0 12 -6 21 -16 21 -9 0 -14 -7 -12 -17z"/>
<path d="M956 133 c-11 -11 -6 -23 8 -23 8 0 17 4 20 9 7 10 -19 23 -28 14z"/>
<path d="M3070 90 c0 -5 5 -10 10 -10 6 0 10 5 10 10 0 6 -4 10 -10 10 -5 0
-10 -4 -10 -10z"/>
<path d="M3270 89 c0 -5 5 -7 10 -4 6 3 10 8 10 11 0 2 -4 4 -10 4 -5 0 -10
-5 -10 -11z"/>
<path d="M2500 79 c0 -5 5 -7 10 -4 6 3 10 8 10 11 0 2 -4 4 -10 4 -5 0 -10
-5 -10 -11z"/>
<path d="M2782 117 c-13 -15 1 -42 17 -33 13 9 15 33 2 40 -5 3 -13 0 -19 -7z"/>
<path d="M1480 70 c0 -5 5 -10 10 -10 6 0 10 5 10 10 0 6 -4 10 -10 10 -5 0
-10 -4 -10 -10z"/>
<path d="M1570 69 c0 -5 5 -7 10 -4 6 3 10 8 10 11 0 2 -4 4 -10 4 -5 0 -10
-5 -10 -11z"/>
<path d="M1907 107 c-3 -8 -1 -20 4 -28 11 -19 34 3 26 25 -8 20 -23 21 -30 3z"/>
<path d="M575 90 c-7 -12 2 -30 16 -30 5 0 9 9 9 20 0 21 -15 27 -25 10z"/>
<path d="M815 100 c-3 -5 -1 -10 4 -10 6 0 11 5 11 10 0 6 -2 10 -4 10 -3 0
-8 -4 -11 -10z"/>
<path d="M818 63 c7 -3 16 -2 19 1 4 3 -2 6 -13 5 -11 0 -14 -3 -6 -6z"/>
<path d="M1244 96 c-4 -10 -2 -22 4 -28 8 -8 13 -7 18 6 4 10 2 22 -4 28 -8 8
-13 7 -18 -6z"/>
</g>
</svg>
